<svg width="70" height="70" viewBox="0 0 70 70" fill="none" xmlns="http://www.w3.org/2000/svg">
<g id="fave_03">
<mask id="mask0_970_3290" style="mask-type:alpha" maskUnits="userSpaceOnUse" x="0" y="0" width="70" height="70">
<rect id="Rectangle 157" width="70" height="70" fill="white"/>
</mask>
<g mask="url(#mask0_970_3290)">
<g id="Group 287">
<g id="Frame" clip-path="url(#clip0_970_3290)">
<path id="Vector" d="M43.4503 29.4531C43.3277 29.5789 43.2584 29.7472 43.2568 29.9229C43.2614 30.1007 43.3301 30.2708 43.4503 30.4019C43.5795 30.5251 43.7508 30.5943 43.9293 30.5954C44.1063 30.5914 44.2748 30.5187 44.3992 30.3927C44.4611 30.3313 44.5101 30.2581 44.5434 30.1774C44.5766 30.0967 44.5933 30.0102 44.5926 29.9229C44.5935 29.8343 44.5769 29.7463 44.5437 29.6641C44.5105 29.5819 44.4614 29.507 44.3992 29.4439C44.2687 29.326 44.0987 29.2615 43.9229 29.2632C43.7471 29.2649 43.5784 29.3327 43.4503 29.4531V29.4531Z" fill="#555555"/>
<path id="Vector_2" d="M47.4943 29.2596C47.3184 29.2596 47.1497 29.3295 47.0253 29.4539C46.9009 29.5783 46.8311 29.747 46.8311 29.9229C46.831 30.0997 46.9006 30.2694 47.0248 30.3952C47.1489 30.5211 47.3176 30.593 47.4943 30.5954C47.6727 30.5954 47.8437 30.5246 47.9699 30.3984C48.096 30.2723 48.1668 30.1013 48.1668 29.9229C48.1644 29.7462 48.0925 29.5775 47.9666 29.4533C47.8408 29.3292 47.6711 29.2596 47.4943 29.2596V29.2596Z" fill="#555555"/>
<path id="Vector_3" d="M50.6548 29.453C50.5908 29.5134 50.5397 29.5862 50.5049 29.667C50.47 29.7478 50.4521 29.8349 50.4521 29.9229C50.4557 30.1026 50.5283 30.2742 50.6548 30.4019C50.7806 30.5245 50.949 30.5938 51.1247 30.5953C51.3044 30.5918 51.476 30.5192 51.6037 30.3927C51.7255 30.2663 51.7947 30.0984 51.7972 29.9229C51.7994 29.7895 51.7614 29.6586 51.6881 29.5471C51.6148 29.4357 51.5096 29.349 51.3863 29.2983C51.2629 29.2475 51.1271 29.2352 50.9967 29.2628C50.8662 29.2904 50.747 29.3567 50.6548 29.453V29.453Z" fill="#555555"/>
<path id="Vector_4" d="M52.8652 25.501H35.0027C34.1133 25.501 33.2604 25.8543 32.6316 26.4832C32.0027 27.112 31.6494 27.965 31.6494 28.8543V53.9116C31.6494 54.801 32.0027 55.6539 32.6316 56.2828C33.2604 56.9116 34.1133 57.2649 35.0027 57.2649H52.8652C53.7546 57.2649 54.6075 56.9116 55.2364 56.2828C55.8652 55.6539 56.2185 54.801 56.2185 53.9116V28.8543C56.2185 28.4139 56.1318 27.9779 55.9633 27.5711C55.7948 27.1642 55.5478 26.7946 55.2364 26.4832C54.925 26.1718 54.5553 25.9248 54.1485 25.7563C53.7417 25.5878 53.3056 25.501 52.8652 25.501V25.501ZM39.3969 55.9015H35.0027C34.4701 55.9015 33.9592 55.6899 33.5826 55.3133C33.206 54.9367 32.9944 54.4258 32.9944 53.8932V49.499H39.3969V55.9015ZM39.3969 48.1632H32.9944V41.7607H39.3969V48.1632ZM39.3969 40.4249H32.9944V33.9763H39.3969V40.4249ZM47.1352 55.9015H40.7327V49.499H47.1352V55.9015ZM47.1352 48.1632H40.7327V41.7607H47.1352V48.1632ZM47.1352 40.4249H40.7327V33.9763H47.1352V40.4249ZM54.8643 53.9116C54.8619 54.4435 54.6495 54.9529 54.2734 55.329C53.8973 55.7051 53.3879 55.9175 52.8561 55.9199H48.4618V41.733H54.8643V53.9116ZM54.8643 40.4433H48.4618V33.9947H54.8643V40.4433ZM54.8643 32.6958H32.9944V28.8543C32.9944 28.3217 33.206 27.8109 33.5826 27.4342C33.9592 27.0576 34.4701 26.846 35.0027 26.846H52.8652C53.3955 26.8509 53.9026 27.0643 54.2767 27.4401C54.6508 27.816 54.8619 28.324 54.8643 28.8543V32.6958Z" fill="#555555"/>
<path id="Vector_5" d="M29.6406 55.8738H15.3524C14.8189 55.8738 14.3072 55.6625 13.9291 55.2861C13.551 54.9098 13.3374 54.399 13.335 53.8655V16.344C13.3374 15.8105 13.551 15.2997 13.9291 14.9234C14.3072 14.547 14.8189 14.3357 15.3524 14.3357H19.5901V15.4504C19.5901 16.3397 19.9433 17.1926 20.5722 17.8215C21.2011 18.4504 22.054 18.8037 22.9433 18.8037H36.338C37.2273 18.8037 38.0802 18.4504 38.7091 17.8215C39.3379 17.1926 39.6912 16.3397 39.6912 15.4504V14.2989H43.9289C44.4623 14.2989 44.9741 14.5101 45.3522 14.8865C45.7303 15.2629 45.9439 15.7737 45.9463 16.3071V22.5899C45.9463 22.7667 46.0159 22.9363 46.14 23.0622C46.2642 23.188 46.4329 23.26 46.6096 23.2624C46.788 23.2624 46.959 23.1915 47.0851 23.0654C47.2113 22.9393 47.2821 22.7682 47.2821 22.5899V16.3348C47.2797 15.447 46.9253 14.5965 46.2967 13.9696C45.6681 13.3427 44.8166 12.9907 43.9289 12.9907H15.3709C14.4831 12.9907 13.6316 13.3427 13.003 13.9696C12.3744 14.5965 12.02 15.447 12.0176 16.3348V53.9116C12.02 54.7993 12.3744 55.6499 13.003 56.2767C13.6316 56.9036 14.4831 57.2556 15.3709 57.2556H29.6591C29.8358 57.2556 30.0055 57.1861 30.1314 57.0619C30.2572 56.9378 30.3291 56.7691 30.3316 56.5923C30.338 56.4987 30.3248 56.4047 30.2928 56.3164C30.2607 56.2281 30.2105 56.1476 30.1454 56.0799C30.0803 56.0122 30.0018 55.9589 29.9149 55.9234C29.8279 55.8879 29.7345 55.871 29.6406 55.8738ZM20.9351 14.2989H38.3462V15.4136C38.3474 15.6776 38.2963 15.9393 38.1958 16.1835C38.0954 16.4277 37.9475 16.6496 37.7607 16.8363C37.574 17.0231 37.3521 17.1709 37.1079 17.2714C36.8637 17.3719 36.602 17.423 36.338 17.4218H22.9433C22.6793 17.423 22.4176 17.3719 22.1734 17.2714C21.9292 17.1709 21.7073 17.0231 21.5205 16.8363C21.3338 16.6496 21.1859 16.4277 21.0854 16.1835C20.985 15.9393 20.9338 15.6776 20.9351 15.4136V14.2989Z" fill="#555555"/>
<path id="Vector_6" d="M29.6409 34.4369H24.2702C24.0918 34.4369 23.9207 34.5078 23.7946 34.6339C23.6685 34.76 23.5977 34.9311 23.5977 35.1094C23.6001 35.2862 23.672 35.4549 23.7979 35.579C23.9237 35.7031 24.0934 35.7727 24.2702 35.7727H29.6409C29.7352 35.7838 29.8308 35.7748 29.9213 35.7463C30.0119 35.7178 30.0954 35.6704 30.1664 35.6073C30.2373 35.5443 30.2941 35.4669 30.333 35.3802C30.3719 35.2936 30.392 35.1998 30.392 35.1048C30.392 35.0099 30.3719 34.916 30.333 34.8294C30.2941 34.7428 30.2373 34.6654 30.1664 34.6023C30.0954 34.5392 30.0119 34.4918 29.9213 34.4633C29.8308 34.4348 29.7352 34.4258 29.6409 34.4369Z" fill="#555555"/>
<path id="Vector_7" d="M16.6891 35.7818H21.59C21.7668 35.7819 21.9365 35.7123 22.0623 35.5881C22.1882 35.464 22.2601 35.2953 22.2625 35.1185C22.2625 34.9402 22.1917 34.7691 22.0655 34.643C21.9394 34.5169 21.7684 34.446 21.59 34.446H16.6891C16.5107 34.446 16.3397 34.5169 16.2136 34.643C16.0875 34.7691 16.0166 34.9402 16.0166 35.1185C16.0166 35.2969 16.0875 35.4679 16.2136 35.5941C16.3397 35.7202 16.5107 35.791 16.6891 35.791V35.7818Z" fill="#555555"/>
<path id="Vector_8" d="M29.6414 39.7984H27.3844C27.2061 39.7984 27.035 39.8693 26.9089 39.9954C26.7828 40.1215 26.7119 40.2925 26.7119 40.4709C26.7143 40.6477 26.7863 40.8164 26.9121 40.9405C27.038 41.0646 27.2076 41.1342 27.3844 41.1342H29.6414C29.8182 41.1342 29.9879 41.0646 30.1137 40.9405C30.2396 40.8164 30.3115 40.6477 30.3139 40.4709C30.3139 40.2925 30.2431 40.1215 30.1169 39.9954C29.9908 39.8693 29.8198 39.7984 29.6414 39.7984Z" fill="#555555"/>
<path id="Vector_9" d="M25.386 40.4709C25.386 40.3826 25.3686 40.2951 25.3348 40.2136C25.301 40.132 25.2515 40.0578 25.1891 39.9954C25.1266 39.9329 25.0525 39.8834 24.9709 39.8496C24.8893 39.8158 24.8018 39.7984 24.7135 39.7984H16.6989C16.5205 39.7984 16.3494 39.8693 16.2233 39.9954C16.0972 40.1215 16.0264 40.2925 16.0264 40.4709C16.0288 40.6477 16.1007 40.8164 16.2266 40.9405C16.3524 41.0646 16.5221 41.1342 16.6989 41.1342H24.7135C24.8903 41.1342 25.06 41.0646 25.1858 40.9405C25.3117 40.8164 25.3836 40.6477 25.386 40.4709V40.4709Z" fill="#555555"/>
<path id="Vector_10" d="M29.642 45.1599H23.1934C23.0991 45.1488 23.0036 45.1578 22.913 45.1863C22.8224 45.2148 22.7389 45.2622 22.668 45.3253C22.597 45.3884 22.5403 45.4658 22.5014 45.5524C22.4625 45.639 22.4424 45.7329 22.4424 45.8278C22.4424 45.9228 22.4625 46.0166 22.5014 46.1033C22.5403 46.1899 22.597 46.2673 22.668 46.3304C22.7389 46.3935 22.8224 46.4408 22.913 46.4693C23.0036 46.4978 23.0991 46.5068 23.1934 46.4957H29.642C29.7363 46.5068 29.8319 46.4978 29.9225 46.4693C30.013 46.4408 30.0965 46.3935 30.1675 46.3304C30.2384 46.2673 30.2952 46.1899 30.3341 46.1033C30.373 46.0166 30.3931 45.9228 30.3931 45.8278C30.3931 45.7329 30.373 45.639 30.3341 45.5524C30.2952 45.4658 30.2384 45.3884 30.1675 45.3253C30.0965 45.2622 30.013 45.2148 29.9225 45.1863C29.8319 45.1578 29.7363 45.1488 29.642 45.1599V45.1599Z" fill="#555555"/>
<path id="Vector_11" d="M20.484 45.1599H16.6886C16.5943 45.1488 16.4987 45.1578 16.4081 45.1863C16.3176 45.2148 16.2341 45.2622 16.1631 45.3253C16.0922 45.3884 16.0354 45.4658 15.9965 45.5524C15.9576 45.639 15.9375 45.7329 15.9375 45.8278C15.9375 45.9228 15.9576 46.0166 15.9965 46.1033C16.0354 46.1899 16.0922 46.2673 16.1631 46.3304C16.2341 46.3935 16.3176 46.4408 16.4081 46.4693C16.4987 46.4978 16.5943 46.5068 16.6886 46.4957H20.484C20.5783 46.5068 20.6739 46.4978 20.7644 46.4693C20.855 46.4408 20.9385 46.3935 21.0095 46.3304C21.0804 46.2673 21.1372 46.1899 21.1761 46.1033C21.215 46.0166 21.2351 45.9228 21.2351 45.8278C21.2351 45.7329 21.215 45.639 21.1761 45.5524C21.1372 45.4658 21.0804 45.3884 21.0095 45.3253C20.9385 45.2622 20.855 45.2148 20.7644 45.1863C20.6739 45.1578 20.5783 45.1488 20.484 45.1599V45.1599Z" fill="#555555"/>
<path id="Vector_12" d="M16.0166 51.1479C16.0166 51.3263 16.0875 51.4973 16.2136 51.6235C16.3397 51.7496 16.5107 51.8204 16.6891 51.8204H24.28C24.3743 51.8315 24.4699 51.8225 24.5604 51.794C24.651 51.7655 24.7345 51.7182 24.8055 51.6551C24.8764 51.592 24.9332 51.5146 24.9721 51.428C25.011 51.3414 25.0311 51.2475 25.0311 51.1525C25.0311 51.0576 25.011 50.9637 24.9721 50.8771C24.9332 50.7905 24.8764 50.7131 24.8055 50.65C24.7345 50.5869 24.651 50.5396 24.5604 50.5111C24.4699 50.4826 24.3743 50.4736 24.28 50.4846H16.6891C16.5123 50.4846 16.3427 50.5542 16.2168 50.6783C16.0909 50.8025 16.019 50.9712 16.0166 51.1479Z" fill="#555555"/>
<g id="Group">
<path id="Vector_13" d="M17.3711 24.0547L19.499 29.1592L21.4243 24.0547L23.4952 29.1592L25.3888 24.0547" stroke="#555555" stroke-width="0.921226" stroke-miterlimit="10" stroke-linecap="round" stroke-linejoin="round"/>
<path id="Vector_14" d="M16.6055 26.2523H26.1621" stroke="#555555" stroke-width="0.921226" stroke-miterlimit="10" stroke-linecap="round" stroke-linejoin="round"/>
</g>
</g>
</g>
</g>
</g>
<defs>
<clipPath id="clip0_970_3290">
<rect width="44.2188" height="44.2188" fill="white" transform="translate(12 13)"/>
</clipPath>
</defs>
</svg>
