<svg width="70" height="70" viewBox="0 0 70 70" fill="none" xmlns="http://www.w3.org/2000/svg">
<g id="fave_07">
<mask id="mask0_970_3265" style="mask-type:alpha" maskUnits="userSpaceOnUse" x="0" y="0" width="70" height="70">
<rect id="Rectangle 284" width="70" height="70" fill="white"/>
</mask>
<g mask="url(#mask0_970_3265)">
<g id="Group 286">
<g id="Frame" clip-path="url(#clip0_970_3265)">
<path id="Vector" d="M51.8431 13H23.4878C22.3541 13 21.2669 13.4503 20.4652 14.2519C19.6636 15.0536 19.2133 16.1408 19.2133 17.2744V20.0381H12.6726C12.5839 20.0369 12.4959 20.0534 12.4137 20.0868C12.3316 20.1201 12.257 20.1696 12.1943 20.2323C12.1316 20.295 12.0821 20.3697 12.0487 20.4518C12.0154 20.534 11.9988 20.622 12.0001 20.7106V49.2686C12.0049 51.3561 12.8363 53.3567 14.3124 54.8328C15.7885 56.3088 17.7891 57.1402 19.8765 57.1451H48.2779C50.3662 57.1427 52.3682 56.312 53.8448 54.8354C55.3214 53.3588 56.152 51.3569 56.1544 49.2686V17.2744C56.1544 16.71 56.0427 16.1511 55.8256 15.6301C55.6085 15.1091 55.2903 14.6362 54.8894 14.2388C54.4886 13.8414 54.013 13.5273 53.4902 13.3147C52.9673 13.1021 52.4075 12.9951 51.8431 13V13ZM20.5214 17.2744C20.5238 16.4967 20.8345 15.7515 21.3854 15.2024C21.9362 14.6533 22.6823 14.345 23.4601 14.345H48.7662C48.0045 15.13 47.5783 16.1807 47.5778 17.2744V48.6698H41.7096V20.7383C41.7096 20.5599 41.6387 20.3888 41.5126 20.2627C41.3865 20.1366 41.2154 20.0658 41.0371 20.0658H20.5214V17.2744ZM19.8489 55.883C18.115 55.8806 16.4527 55.1907 15.2266 53.9646C14.0005 52.7385 13.3106 51.0763 13.3082 49.3423V21.3923H40.3646V49.3331C40.3666 50.6259 40.686 51.8984 41.2948 53.0388C41.9036 54.1793 42.783 55.1528 43.856 55.8738L19.8489 55.883ZM54.791 49.3423C54.8081 51.0309 54.1715 52.6608 53.0143 53.8906C51.8571 55.1205 50.2691 55.8552 48.5825 55.9409C46.896 56.0266 45.2417 55.4567 43.9658 54.3504C42.6899 53.2441 41.8914 51.6873 41.7372 50.0056H48.2503C48.4271 50.0056 48.5967 49.936 48.7226 49.8119C48.8484 49.6878 48.9204 49.5191 48.9228 49.3423V17.2744C48.9648 16.5247 49.2923 15.8195 49.8379 15.3036C50.3835 14.7877 51.106 14.5002 51.8569 14.5002C52.6078 14.5002 53.3302 14.7877 53.8759 15.3036C54.4215 15.8195 54.749 16.5247 54.791 17.2744V49.3423Z" fill="#555555"/>
<path id="Vector_2" d="M36.6987 31.2403H30.2501C30.1558 31.2292 30.0602 31.2382 29.9697 31.2667C29.8791 31.2952 29.7956 31.3426 29.7246 31.4057C29.6537 31.4688 29.5969 31.5462 29.558 31.6328C29.5191 31.7194 29.499 31.8133 29.499 31.9082C29.499 32.0032 29.5191 32.097 29.558 32.1836C29.5969 32.2703 29.6537 32.3477 29.7246 32.4107C29.7956 32.4738 29.8791 32.5212 29.9697 32.5497C30.0602 32.5782 30.1558 32.5872 30.2501 32.5761H36.6987C36.8623 32.5569 37.0132 32.4782 37.1226 32.3551C37.2321 32.232 37.2926 32.073 37.2926 31.9082C37.2926 31.7435 37.2321 31.5844 37.1226 31.4613C37.0132 31.3382 36.8623 31.2596 36.6987 31.2403V31.2403Z" fill="#555555"/>
<path id="Vector_3" d="M36.6982 25.4272H30.2496C30.0713 25.4272 29.9002 25.4981 29.7741 25.6242C29.648 25.7503 29.5771 25.9214 29.5771 26.0997C29.5796 26.2765 29.6515 26.4452 29.7773 26.5693C29.9032 26.6934 30.0729 26.763 30.2496 26.763H36.6982C36.8741 26.763 37.0428 26.6931 37.1672 26.5687C37.2916 26.4444 37.3615 26.2756 37.3615 26.0997C37.3615 25.923 37.2919 25.7533 37.1678 25.6274C37.0437 25.5016 36.875 25.4297 36.6982 25.4272V25.4272Z" fill="#555555"/>
<path id="Vector_4" d="M36.6982 37.0532H30.2496C30.0729 37.0532 29.9032 37.1228 29.7773 37.2469C29.6515 37.3711 29.5796 37.5398 29.5771 37.7165C29.5771 37.8949 29.648 38.0659 29.7741 38.192C29.9002 38.3181 30.0713 38.389 30.2496 38.389H36.6982C36.875 38.3866 37.0437 38.3147 37.1678 38.1888C37.2919 38.063 37.3615 37.8933 37.3615 37.7165C37.3615 37.5406 37.2916 37.3719 37.1672 37.2475C37.0428 37.1231 36.8741 37.0532 36.6982 37.0532V37.0532Z" fill="#555555"/>
<path id="Vector_5" d="M36.698 42.8569H31.2535C31.0752 42.8569 30.9041 42.9278 30.778 43.0539C30.6519 43.18 30.5811 43.3511 30.5811 43.5294C30.5811 43.7078 30.6519 43.8788 30.778 44.005C30.9041 44.1311 31.0752 44.2019 31.2535 44.2019H36.698C36.8764 44.2019 37.0474 44.1311 37.1735 44.005C37.2996 43.8788 37.3705 43.7078 37.3705 43.5294C37.3705 43.3511 37.2996 43.18 37.1735 43.0539C37.0474 42.9278 36.8764 42.8569 36.698 42.8569V42.8569Z" fill="#555555"/>
<path id="Vector_6" d="M17.0397 44.2019H27.6798C27.8582 44.2019 28.0292 44.1311 28.1554 44.005C28.2815 43.8788 28.3523 43.7078 28.3523 43.5294C28.3523 43.3511 28.2815 43.18 28.1554 43.0539C28.0292 42.9278 27.8582 42.8569 27.6798 42.8569H17.0397C16.8613 42.8569 16.6903 42.9278 16.5642 43.0539C16.438 43.18 16.3672 43.3511 16.3672 43.5294C16.3672 43.7078 16.438 43.8788 16.5642 44.005C16.6903 44.1311 16.8613 44.2019 17.0397 44.2019V44.2019Z" fill="#555555"/>
<path id="Vector_7" d="M33.1233 48.6698H25.127C25.0328 48.6587 24.9372 48.6677 24.8466 48.6962C24.756 48.7247 24.6725 48.772 24.6016 48.8351C24.5306 48.8982 24.4738 48.9756 24.435 49.0622C24.3961 49.1488 24.376 49.2427 24.376 49.3377C24.376 49.4326 24.3961 49.5265 24.435 49.6131C24.4738 49.6997 24.5306 49.7771 24.6016 49.8402C24.6725 49.9033 24.756 49.9507 24.8466 49.9792C24.9372 50.0077 25.0328 50.0166 25.127 50.0056H33.1693C33.333 49.9863 33.4838 49.9077 33.5933 49.7846C33.7028 49.6614 33.7633 49.5024 33.7633 49.3377C33.7633 49.1729 33.7028 49.0139 33.5933 48.8908C33.4838 48.7677 33.333 48.689 33.1693 48.6698H33.1233Z" fill="#555555"/>
<path id="Vector_8" d="M21.5061 48.6698H17.0382C16.9439 48.6587 16.8483 48.6677 16.7577 48.6962C16.6672 48.7247 16.5837 48.772 16.5127 48.8351C16.4418 48.8982 16.385 48.9756 16.3461 49.0622C16.3072 49.1488 16.2871 49.2427 16.2871 49.3377C16.2871 49.4326 16.3072 49.5265 16.3461 49.6131C16.385 49.6997 16.4418 49.7771 16.5127 49.8402C16.5837 49.9033 16.6672 49.9507 16.7577 49.9792C16.8483 50.0077 16.9439 50.0166 17.0382 50.0056H21.5061C21.6004 50.0166 21.696 50.0077 21.7866 49.9792C21.8771 49.9507 21.9606 49.9033 22.0316 49.8402C22.1025 49.7771 22.1593 49.6997 22.1982 49.6131C22.2371 49.5265 22.2572 49.4326 22.2572 49.3377C22.2572 49.2427 22.2371 49.1488 22.1982 49.0622C22.1593 48.9756 22.1025 48.8982 22.0316 48.8351C21.9606 48.772 21.8771 48.7247 21.7866 48.6962C21.696 48.6677 21.6004 48.6587 21.5061 48.6698V48.6698Z" fill="#555555"/>
<path id="Vector_9" d="M17.0397 38.3889H25.9756C26.1539 38.3889 26.325 38.318 26.4511 38.1919C26.5772 38.0658 26.6481 37.8948 26.6481 37.7164V26.0997C26.6481 25.9214 26.5772 25.7503 26.4511 25.6242C26.325 25.4981 26.1539 25.4272 25.9756 25.4272H17.0397C16.8613 25.4272 16.6903 25.4981 16.5642 25.6242C16.438 25.7503 16.3672 25.9214 16.3672 26.0997V37.7164C16.3672 37.8948 16.438 38.0658 16.5642 38.1919C16.6903 38.318 16.8613 38.3889 17.0397 38.3889V38.3889ZM17.7122 26.763H25.3031V37.0531H17.7582L17.7122 26.763Z" fill="#555555"/>
</g>
</g>
</g>
</g>
<defs>
<clipPath id="clip0_970_3265">
<rect width="44.1544" height="44.2188" fill="white" transform="translate(12 13)"/>
</clipPath>
</defs>
</svg>
