<svg width="70" height="70" viewBox="0 0 70 70" fill="none" xmlns="http://www.w3.org/2000/svg">
<g id="fave_04">
<mask id="mask0_970_3295" style="mask-type:alpha" maskUnits="userSpaceOnUse" x="0" y="0" width="70" height="70">
<rect id="Rectangle 281" width="70" height="70" fill="white"/>
</mask>
<g mask="url(#mask0_970_3295)">
<g id="Group 291">
<g id="Frame" clip-path="url(#clip0_970_3295)">
<path id="Vector" d="M39.2025 40.2314H29.0138C28.9195 40.2203 28.8239 40.2293 28.7333 40.2578C28.6428 40.2863 28.5593 40.3337 28.4883 40.3968C28.4174 40.4599 28.3606 40.5372 28.3217 40.6239C28.2828 40.7105 28.2627 40.8043 28.2627 40.8993C28.2627 40.9942 28.2828 41.0881 28.3217 41.1747C28.3606 41.2613 28.4174 41.3387 28.4883 41.4018C28.5593 41.4649 28.6428 41.5123 28.7333 41.5408C28.8239 41.5693 28.9195 41.5783 29.0138 41.5672H39.2025C39.2968 41.5783 39.3924 41.5693 39.483 41.5408C39.5735 41.5123 39.657 41.4649 39.728 41.4018C39.7989 41.3387 39.8557 41.2613 39.8946 41.1747C39.9335 41.0881 39.9536 40.9942 39.9536 40.8993C39.9536 40.8043 39.9335 40.7105 39.8946 40.6239C39.8557 40.5372 39.7989 40.4599 39.728 40.3968C39.657 40.3337 39.5735 40.2863 39.483 40.2578C39.3924 40.2293 39.2968 40.2203 39.2025 40.2314V40.2314Z" fill="#555555"/>
<path id="Vector_2" d="M36.955 44.3125H31.2618C31.1675 44.3014 31.0719 44.3104 30.9814 44.3389C30.8908 44.3674 30.8073 44.4147 30.7364 44.4778C30.6654 44.5409 30.6086 44.6183 30.5697 44.7049C30.5308 44.7915 30.5107 44.8854 30.5107 44.9804C30.5107 45.0753 30.5308 45.1692 30.5697 45.2558C30.6086 45.3424 30.6654 45.4198 30.7364 45.4829C30.8073 45.546 30.8908 45.5933 30.9814 45.6218C31.0719 45.6503 31.1675 45.6593 31.2618 45.6482H36.955C37.0493 45.6593 37.1449 45.6503 37.2354 45.6218C37.326 45.5933 37.4095 45.546 37.4804 45.4829C37.5514 45.4198 37.6082 45.3424 37.6471 45.2558C37.686 45.1692 37.7061 45.0753 37.7061 44.9804C37.7061 44.8854 37.686 44.7915 37.6471 44.7049C37.6082 44.6183 37.5514 44.5409 37.4804 44.4778C37.4095 44.4147 37.326 44.3674 37.2354 44.3389C37.1449 44.3104 37.0493 44.3014 36.955 44.3125V44.3125Z" fill="#555555"/>
<path id="Vector_3" d="M49.7975 13C49.6216 13 49.4528 13.0699 49.3285 13.1943C49.2041 13.3187 49.1342 13.4874 49.1342 13.6633V18.7945H43.699C43.0971 17.6639 42.3056 16.6449 41.359 15.7821C40.1303 14.6812 38.6668 13.8747 37.0798 13.4238C35.4928 12.9729 33.824 12.8894 32.1999 13.1798C30.5758 13.4702 29.0393 14.1267 27.7068 15.0996C26.3743 16.0724 25.281 17.336 24.5098 18.7945H19.1207V13.6817C19.1207 13.5058 19.0508 13.3371 18.9264 13.2127C18.802 13.0883 18.6333 13.0184 18.4574 13.0184C16.7471 13.0184 15.1069 13.6978 13.8975 14.9072C12.6882 16.1165 12.0088 17.7567 12.0088 19.467V50.7887C12.0088 52.499 12.6882 54.1392 13.8975 55.3485C15.1069 56.5579 16.7471 57.2373 18.4574 57.2373H49.7975C51.5077 57.2373 53.148 56.5579 54.3573 55.3485C55.5666 54.1392 56.246 52.499 56.246 50.7887V19.467C56.2485 18.6186 56.0835 17.7781 55.7605 16.9936C55.4375 16.2091 54.9629 15.496 54.3638 14.8952C53.7648 14.2945 53.0531 13.8178 52.2695 13.4926C51.4859 13.1674 50.6459 13 49.7975 13V13ZM24.6296 22.9032C24.7898 21.3501 25.3293 19.8602 26.2006 18.5646C27.0719 17.269 28.2484 16.2074 29.6264 15.4734C31.0044 14.7393 32.5417 14.3552 34.1031 14.3549C35.6644 14.3546 37.2019 14.7382 38.5801 15.4717C39.9584 16.2053 41.1353 17.2664 42.0071 18.5617C42.8789 19.857 43.4189 21.3467 43.5797 22.8997C43.7404 24.4527 43.5169 26.0215 42.9289 27.4679C42.3409 28.9142 41.4063 30.1939 40.2075 31.1942C39.6826 31.6357 39.2612 32.1872 38.973 32.8097C38.6849 33.4321 38.5371 34.1103 38.5401 34.7962V36.1688H34.7815V27.8778H36.6239C36.8007 27.8754 36.9694 27.8035 37.0935 27.6776C37.2177 27.5517 37.2872 27.3821 37.2872 27.2053C37.2872 27.0294 37.2173 26.8607 37.0929 26.7363C36.9686 26.6119 36.7999 26.542 36.6239 26.542H31.5572C31.3813 26.542 31.2126 26.6119 31.0882 26.7363C30.9638 26.8607 30.8939 27.0294 30.8939 27.2053C30.8939 27.3821 30.9635 27.5517 31.0876 27.6776C31.2117 27.8035 31.3804 27.8754 31.5572 27.8778H33.3996V36.1688H29.6779V34.7962C29.6772 34.1042 29.5251 33.4207 29.2322 32.7937C28.9394 32.1667 28.513 31.6113 27.9828 31.1666C26.794 30.1658 25.8672 28.8901 25.2828 27.4502C24.6985 26.0102 24.4743 24.4494 24.6296 22.9032V22.9032ZM13.3446 19.4486C13.3469 18.2099 13.7981 17.014 14.6145 16.0824C15.4309 15.1509 16.5572 14.5467 17.7849 14.3818V44.3493C16.9154 44.4399 16.0735 44.7062 15.3101 45.1322C14.5468 45.5582 13.8781 46.135 13.3446 46.8274V19.4486ZM49.7975 55.8738H18.4758C17.1198 55.8738 15.8193 55.3352 14.8605 54.3763C13.9017 53.4175 13.363 52.1171 13.363 50.7611C13.363 49.4051 13.9017 48.1046 14.8605 47.1457C15.8193 46.1869 17.1198 45.6482 18.4758 45.6482C18.5637 45.6482 18.6507 45.6308 18.7318 45.5969C18.8128 45.563 18.8864 45.5133 18.9481 45.4507C19.0098 45.3881 19.0585 45.3139 19.0913 45.2324C19.124 45.1509 19.1403 45.0636 19.1391 44.9757V20.1026H23.9202C23.6091 20.9586 23.4048 21.8497 23.3122 22.7558C23.1383 24.5161 23.3955 26.2923 24.0615 27.931C24.7276 29.5697 25.7826 31.0217 27.1353 32.1615C27.5192 32.4767 27.8283 32.8733 28.0402 33.3226C28.2521 33.7719 28.3615 34.2626 28.3605 34.7593V36.8045C28.3605 36.8924 28.378 36.9794 28.4119 37.0604C28.4458 37.1415 28.4955 37.2151 28.5581 37.2768C28.6206 37.3385 28.6948 37.3871 28.7764 37.4199C28.8579 37.4527 28.9452 37.469 29.033 37.4678H39.2034C39.2912 37.469 39.3785 37.4527 39.46 37.4199C39.5416 37.3871 39.6158 37.3385 39.6784 37.2768C39.7409 37.2151 39.7906 37.1415 39.8245 37.0604C39.8584 36.9794 39.8759 36.8924 39.8759 36.8045V34.7593C39.8731 34.2686 39.9782 33.7833 40.1835 33.3376C40.3888 32.8919 40.6895 32.4967 41.0642 32.1799C42.7843 30.7514 44.0171 28.823 44.5916 26.6621C45.1661 24.5013 45.0537 22.2152 44.2701 20.1211H49.0697V44.9942C49.0685 45.082 49.0847 45.1693 49.1175 45.2508C49.1503 45.3324 49.199 45.4066 49.2607 45.4691C49.3224 45.5317 49.3959 45.5814 49.477 45.6153C49.5581 45.6492 49.6451 45.6667 49.733 45.6667C51.089 45.6667 52.3894 46.2053 53.3483 47.1642C54.3071 48.123 54.8458 49.4235 54.8458 50.7795C54.8458 52.1355 54.3071 53.4359 53.3483 54.3948C52.3894 55.3536 51.089 55.8923 49.733 55.8923L49.7975 55.8738ZM54.9103 46.8274C54.3768 46.135 53.708 45.5582 52.9447 45.1322C52.1814 44.7062 51.3394 44.4399 50.47 44.3493V14.3818C51.6976 14.5467 52.824 15.1509 53.6404 16.0824C54.4568 17.014 54.9079 18.2099 54.9103 19.4486V46.8274Z" fill="#555555"/>
<path id="Vector_4" d="M49.7887 13C49.6128 13 49.4441 13.0699 49.3197 13.1943C49.1953 13.3187 49.1254 13.4874 49.1254 13.6633V18.7945H43.6902C43.0883 17.6639 42.2968 16.6449 41.3502 15.7821C40.1215 14.6812 38.658 13.8747 37.071 13.4238C35.484 12.9729 33.8152 12.8894 32.1911 13.1798C30.567 13.4702 29.0305 14.1267 27.698 15.0996C26.3656 16.0724 25.2722 17.336 24.501 18.7945H19.1119V13.6817C19.1119 13.5058 19.042 13.3371 18.9176 13.2127C18.7932 13.0883 18.6245 13.0184 18.4486 13.0184C16.7383 13.0184 15.0981 13.6978 13.8887 14.9072C12.6794 16.1165 12 17.7567 12 19.467V50.7887C12 52.499 12.6794 54.1392 13.8887 55.3485C15.0981 56.5579 16.7383 57.2373 18.4486 57.2373H49.7887C51.4989 57.2373 53.1392 56.5579 54.3485 55.3485C55.5579 54.1392 56.2373 52.499 56.2373 50.7887V19.467C56.2397 18.6186 56.0747 17.7781 55.7517 16.9936C55.4287 16.2091 54.9541 15.496 54.355 14.8952C53.756 14.2945 53.0443 13.8178 52.2607 13.4926C51.4771 13.1674 50.6371 13 49.7887 13V13ZM24.6208 22.9032C24.781 21.3501 25.3205 19.8602 26.1918 18.5646C27.0631 17.269 28.2396 16.2074 29.6176 15.4734C30.9956 14.7393 32.5329 14.3552 34.0943 14.3549C35.6556 14.3546 37.1931 14.7382 38.5714 15.4717C39.9496 16.2053 41.1265 17.2664 41.9983 18.5617C42.8701 19.857 43.4101 21.3467 43.5709 22.8997C43.7316 24.4527 43.5081 26.0215 42.9201 27.4679C42.3321 28.9142 41.3975 30.1939 40.1987 31.1942C39.6738 31.6357 39.2524 32.1872 38.9642 32.8097C38.6761 33.4321 38.5283 34.1103 38.5313 34.7962V36.1688H34.7727V27.8778H36.6151C36.7919 27.8754 36.9606 27.8035 37.0847 27.6776C37.2089 27.5517 37.2784 27.3821 37.2784 27.2053C37.2784 27.0294 37.2086 26.8607 37.0842 26.7363C36.9598 26.6119 36.7911 26.542 36.6151 26.542H31.5484C31.3725 26.542 31.2038 26.6119 31.0794 26.7363C30.955 26.8607 30.8851 27.0294 30.8851 27.2053C30.8851 27.3821 30.9547 27.5517 31.0788 27.6776C31.203 27.8035 31.3717 27.8754 31.5484 27.8778H33.3909V36.1688H29.6691V34.7962C29.6684 34.1042 29.5163 33.4207 29.2235 32.7937C28.9306 32.1667 28.5042 31.6113 27.9741 31.1666C26.7852 30.1658 25.8584 28.8901 25.274 27.4502C24.6897 26.0102 24.4655 24.4494 24.6208 22.9032V22.9032ZM13.3358 19.4486C13.3381 18.2099 13.7893 17.014 14.6057 16.0824C15.4221 15.1509 16.5484 14.5467 17.7761 14.3818V44.3493C16.9066 44.4399 16.0647 44.7062 15.3014 45.1322C14.538 45.5582 13.8693 46.135 13.3358 46.8274V19.4486ZM49.7887 55.8738H18.467C17.111 55.8738 15.8105 55.3352 14.8517 54.3763C13.8929 53.4175 13.3542 52.1171 13.3542 50.7611C13.3542 49.4051 13.8929 48.1046 14.8517 47.1457C15.8105 46.1869 17.111 45.6482 18.467 45.6482C18.5549 45.6482 18.6419 45.6308 18.723 45.5969C18.8041 45.563 18.8776 45.5133 18.9393 45.4507C19.001 45.3881 19.0497 45.3139 19.0825 45.2324C19.1153 45.1509 19.1315 45.0636 19.1303 44.9757V20.1026H23.9114C23.6003 20.9586 23.396 21.8497 23.3034 22.7558C23.1295 24.5161 23.3867 26.2923 24.0528 27.931C24.7188 29.5697 25.7738 31.0217 27.1265 32.1615C27.5104 32.4767 27.8195 32.8733 28.0314 33.3226C28.2433 33.7719 28.3527 34.2626 28.3518 34.7593V36.8045C28.3518 36.8924 28.3692 36.9794 28.4031 37.0604C28.437 37.1415 28.4867 37.2151 28.5493 37.2768C28.6118 37.3385 28.6861 37.3871 28.7676 37.4199C28.8491 37.4527 28.9364 37.469 29.0243 37.4678H39.1946C39.2825 37.469 39.3697 37.4527 39.4512 37.4199C39.5328 37.3871 39.607 37.3385 39.6696 37.2768C39.7321 37.2151 39.7818 37.1415 39.8157 37.0604C39.8496 36.9794 39.8671 36.8924 39.8671 36.8045V34.7593C39.8644 34.2686 39.9694 33.7833 40.1747 33.3376C40.38 32.8919 40.6807 32.4967 41.0555 32.1799C42.7755 30.7514 44.0084 28.823 44.5828 26.6621C45.1573 24.5013 45.0449 22.2152 44.2613 20.1211H49.0609V44.9942C49.0597 45.082 49.0759 45.1693 49.1087 45.2508C49.1415 45.3324 49.1902 45.4066 49.2519 45.4691C49.3136 45.5317 49.3871 45.5814 49.4682 45.6153C49.5493 45.6492 49.6363 45.6667 49.7242 45.6667C51.0802 45.6667 52.3807 46.2053 53.3395 47.1642C54.2983 48.123 54.837 49.4235 54.837 50.7795C54.837 52.1355 54.2983 53.4359 53.3395 54.3948C52.3807 55.3536 51.0802 55.8923 49.7242 55.8923L49.7887 55.8738ZM54.9015 46.8274C54.368 46.135 53.6992 45.5582 52.9359 45.1322C52.1726 44.7062 51.3306 44.4399 50.4612 44.3493V14.3818C51.6888 14.5467 52.8152 15.1509 53.6316 16.0824C54.448 17.014 54.8991 18.2099 54.9015 19.4486V46.8274Z" fill="#555555"/>
</g>
</g>
</g>
</g>
<defs>
<clipPath id="clip0_970_3295">
<rect width="44.2188" height="44.2188" fill="white" transform="translate(12 13)"/>
</clipPath>
</defs>
</svg>
