<svg width="70" height="70" viewBox="0 0 70 70" fill="none" xmlns="http://www.w3.org/2000/svg">
<g id="fave_06">
<mask id="mask0_970_3301" style="mask-type:alpha" maskUnits="userSpaceOnUse" x="0" y="0" width="70" height="70">
<rect id="Rectangle 283" width="70" height="70" fill="white"/>
</mask>
<g mask="url(#mask0_970_3301)">
<g id="Group 294">
<g id="Frame" clip-path="url(#clip0_970_3301)">
<path id="Vector" d="M38.3306 17.5535H34.0553C33.887 17.5535 33.7257 17.6203 33.6067 17.7393C33.4877 17.8582 33.4209 18.0196 33.4209 18.1878C33.4209 18.3561 33.4877 18.5174 33.6067 18.6364C33.7257 18.7553 33.887 18.8222 34.0553 18.8222H38.3306C38.4988 18.8222 38.6602 18.7553 38.7791 18.6364C38.8981 18.5174 38.9649 18.3561 38.9649 18.1878C38.9649 18.0196 38.8981 17.8582 38.7791 17.7393C38.6602 17.6203 38.4988 17.5535 38.3306 17.5535V17.5535Z" fill="#555555"/>
<path id="Vector_2" d="M30.6663 17.5535H29.8755C29.7073 17.5535 29.546 17.6203 29.427 17.7393C29.308 17.8582 29.2412 18.0196 29.2412 18.1878C29.2412 18.3561 29.308 18.5174 29.427 18.6364C29.546 18.7553 29.7073 18.8222 29.8755 18.8222H30.6663C30.8346 18.8222 30.9959 18.7553 31.1149 18.6364C31.2338 18.5174 31.3007 18.3561 31.3007 18.1878C31.3007 18.0196 31.2338 17.8582 31.1149 17.7393C30.9959 17.6203 30.8346 17.5535 30.6663 17.5535V17.5535Z" fill="#555555"/>
<path id="Vector_3" d="M38.3306 20.925H34.0553C33.887 20.925 33.7257 20.9919 33.6067 21.1108C33.4877 21.2298 33.4209 21.3912 33.4209 21.5594C33.4209 21.7276 33.4877 21.889 33.6067 22.008C33.7257 22.1269 33.887 22.1938 34.0553 22.1938H38.3306C38.4988 22.1938 38.6602 22.1269 38.7791 22.008C38.8981 21.889 38.9649 21.7276 38.9649 21.5594C38.9649 21.3912 38.8981 21.2298 38.7791 21.1108C38.6602 20.9919 38.4988 20.925 38.3306 20.925Z" fill="#555555"/>
<path id="Vector_4" d="M30.6663 20.925H29.8755C29.7073 20.925 29.546 20.9919 29.427 21.1108C29.308 21.2298 29.2412 21.3912 29.2412 21.5594C29.2412 21.7276 29.308 21.889 29.427 22.008C29.546 22.1269 29.7073 22.1938 29.8755 22.1938H30.6663C30.8346 22.1938 30.9959 22.1269 31.1149 22.008C31.2338 21.889 31.3007 21.7276 31.3007 21.5594C31.3007 21.3912 31.2338 21.2298 31.1149 21.1108C30.9959 20.9919 30.8346 20.925 30.6663 20.925V20.925Z" fill="#555555"/>
<path id="Vector_5" d="M38.3307 44.5264H34.0554C33.901 44.5446 33.7587 44.6188 33.6554 44.7349C33.5522 44.8511 33.4951 45.001 33.4951 45.1564C33.4951 45.3119 33.5522 45.4619 33.6554 45.578C33.7587 45.6941 33.901 45.7683 34.0554 45.7865H38.3307C38.4196 45.7969 38.5098 45.7884 38.5953 45.7616C38.6807 45.7347 38.7594 45.69 38.8263 45.6305C38.8933 45.571 38.9469 45.498 38.9835 45.4163C39.0202 45.3346 39.0392 45.246 39.0392 45.1564C39.0392 45.0669 39.0202 44.9783 38.9835 44.8966C38.9469 44.8149 38.8933 44.7419 38.8263 44.6824C38.7594 44.6229 38.6807 44.5782 38.5953 44.5514C38.5098 44.5245 38.4196 44.516 38.3307 44.5264V44.5264Z" fill="#555555"/>
<path id="Vector_6" d="M30.6652 44.5264H29.8745C29.7855 44.516 29.6954 44.5245 29.6099 44.5514C29.5245 44.5782 29.4458 44.6229 29.3788 44.6824C29.3119 44.7419 29.2583 44.8149 29.2217 44.8966C29.185 44.9783 29.166 45.0669 29.166 45.1564C29.166 45.246 29.185 45.3346 29.2217 45.4163C29.2583 45.498 29.3119 45.571 29.3788 45.6305C29.4458 45.69 29.5245 45.7347 29.6099 45.7616C29.6954 45.7884 29.7855 45.7969 29.8745 45.7865H30.6652C30.8196 45.7683 30.9619 45.6941 31.0652 45.578C31.1684 45.4619 31.2255 45.3119 31.2255 45.1564C31.2255 45.001 31.1684 44.8511 31.0652 44.7349C30.9619 44.6188 30.8196 44.5446 30.6652 44.5264V44.5264Z" fill="#555555"/>
<path id="Vector_7" d="M38.3307 47.8981H34.0554C33.9732 47.8981 33.8918 47.9143 33.8159 47.9458C33.74 47.9772 33.6711 48.0233 33.613 48.0814C33.5549 48.1395 33.5088 48.2085 33.4773 48.2844C33.4459 48.3603 33.4297 48.4416 33.4297 48.5238C33.4297 48.6905 33.4953 48.8506 33.6124 48.9693C33.7295 49.088 33.8886 49.1559 34.0554 49.1582H38.3307C38.499 49.1582 38.6603 49.0913 38.7793 48.9724C38.8982 48.8534 38.9651 48.692 38.9651 48.5238C38.9628 48.3571 38.895 48.1979 38.7762 48.0808C38.6575 47.9638 38.4975 47.8981 38.3307 47.8981V47.8981Z" fill="#555555"/>
<path id="Vector_8" d="M30.6663 47.8981H29.8755C29.7088 47.8981 29.5488 47.9638 29.4301 48.0808C29.3113 48.1979 29.2435 48.3571 29.2412 48.5238C29.2412 48.692 29.308 48.8534 29.427 48.9724C29.546 49.0913 29.7073 49.1582 29.8755 49.1582H30.6663C30.833 49.1559 30.9922 49.088 31.1093 48.9693C31.2264 48.8506 31.292 48.6905 31.292 48.5238C31.292 48.3579 31.2261 48.1987 31.1087 48.0814C30.9914 47.964 30.8323 47.8981 30.6663 47.8981V47.8981Z" fill="#555555"/>
<path id="Vector_9" d="M57.6572 23.5233C57.5598 23.466 57.4488 23.4357 57.3357 23.4357C57.2226 23.4357 57.1116 23.466 57.0142 23.5233L53.3036 25.826L49.8886 23.6884V17.6055C49.8886 16.3648 49.3963 15.1748 48.5198 14.2967C47.6433 13.4185 46.4542 12.9241 45.2135 12.9218H31.0666C29.8251 12.924 28.6351 13.4183 27.7572 14.2961C26.8793 15.174 26.3851 16.364 26.3828 17.6055V23.8274C26.7999 23.7492 27.2518 24.8875 27.6515 24.8615V17.6055C27.6515 16.6998 28.0113 15.8312 28.6518 15.1907C29.2922 14.5503 30.1609 14.1905 31.0666 14.1905H42.0157C41.5468 14.6272 41.1729 15.1558 40.9173 15.7433C40.6616 16.3309 40.5297 16.9648 40.5298 17.6055V52.8512L37.9923 51.0263C37.8859 50.9499 37.7583 50.9088 37.6274 50.9088C37.4964 50.9088 37.3688 50.9499 37.2624 51.0263L34.0906 53.2943L30.9189 51.0263C30.8115 50.9523 30.6842 50.9127 30.5539 50.9127C30.4235 50.9127 30.2963 50.9523 30.1889 51.0263L27.6515 52.8425V39.356C27.217 39.356 26.7825 39.8687 26.3828 39.7905V54.0764C26.383 54.1935 26.4156 54.3082 26.4769 54.4079C26.5382 54.5076 26.626 54.5883 26.7304 54.6413C26.8319 54.6967 26.9472 54.7221 27.0626 54.7144C27.178 54.7067 27.2889 54.6663 27.3821 54.5978L30.5539 52.3298L33.7257 54.5978C33.832 54.6742 33.9597 54.7153 34.0906 54.7153C34.2216 54.7153 34.3492 54.6742 34.4556 54.5978L37.6274 52.3298L40.7991 54.5978C40.9055 54.6737 41.0335 54.7133 41.1641 54.7108C41.2643 54.7147 41.3636 54.6907 41.4509 54.6413C41.5566 54.59 41.6454 54.5096 41.707 54.4095C41.7686 54.3095 41.8003 54.1939 41.7984 54.0764V42.7798H53.3036C54.5444 42.7798 55.7344 42.2875 56.6125 41.411C57.4907 40.5345 57.9851 39.3454 57.9874 38.1047V24.0881C57.988 23.973 57.9576 23.8599 57.8996 23.7605C57.8415 23.6612 57.7578 23.5792 57.6572 23.5233V23.5233ZM41.8071 41.5284V17.6837C41.8071 16.778 42.1669 15.9094 42.8074 15.2689C43.4478 14.6285 44.3165 14.2687 45.2222 14.2687C46.1279 14.2687 46.9966 14.6285 47.637 15.2689C48.2775 15.9094 48.6373 16.778 48.6373 17.6837V38.1133C48.6372 38.7541 48.7691 39.388 49.0248 39.9756C49.2804 40.5631 49.6543 41.0917 50.1232 41.5284H41.8071ZM56.7274 38.1133C56.7274 39.0191 56.3676 39.8877 55.7272 40.5282C55.0867 41.1686 54.2181 41.5284 53.3123 41.5284C52.4066 41.5284 51.538 41.1686 50.8975 40.5282C50.2571 39.8877 49.8973 39.0191 49.8973 38.1133V25.2178L52.9821 27.1382C53.0818 27.2025 53.198 27.2368 53.3167 27.2368C53.4354 27.2368 53.5515 27.2025 53.6513 27.1382L56.7274 25.2178V38.1133Z" fill="#555555"/>
<path id="Vector_10" d="M13.8692 44.5612C13.8691 44.8316 13.976 45.0911 14.1664 45.2832C14.3568 45.4752 14.6154 45.5843 14.8858 45.5865H22.9934C23.2508 45.5977 23.5028 45.5107 23.6985 45.3432C23.8942 45.1756 24.019 44.94 24.0477 44.684C24.0763 44.428 24.0068 44.1707 23.853 43.964C23.6993 43.7573 23.4728 43.6167 23.2193 43.5705V39.8426H29.4325V40.4944C29.4325 40.5543 29.4563 40.6117 29.4987 40.6541C29.541 40.6965 29.5985 40.7203 29.6584 40.7203H35.2894C35.3478 40.7181 35.4031 40.6932 35.4436 40.6511C35.4841 40.609 35.5067 40.5528 35.5066 40.4944V30.8835C35.5067 30.8251 35.4841 30.7689 35.4436 30.7267C35.4031 30.6846 35.3478 30.6598 35.2894 30.6576H29.6845C29.6246 30.6576 29.5671 30.6814 29.5247 30.7237C29.4824 30.7661 29.4586 30.8236 29.4586 30.8835V31.2919H28.5896V29.7625C28.5896 29.7049 28.5667 29.6496 28.526 29.6089C28.4852 29.5682 28.43 29.5453 28.3724 29.5453H27.9292V27.3381C27.9269 27.2797 27.9021 27.2244 27.86 27.1839C27.8179 27.1434 27.7617 27.1208 27.7032 27.1208H27.4686V26.3388C27.5306 26.2814 27.586 26.2173 27.6337 26.1476H28.8676C29.0157 26.271 29.1913 26.3569 29.3797 26.398C29.568 26.4392 29.7634 26.4343 29.9494 26.3838C30.1355 26.3334 30.3066 26.2388 30.4483 26.1082C30.59 25.9775 30.6982 25.8146 30.7636 25.6333C30.829 25.452 30.8497 25.2576 30.824 25.0665C30.7983 24.8755 30.7269 24.6935 30.6159 24.5359C30.5049 24.3783 30.3576 24.2498 30.1864 24.1613C30.0151 24.0727 29.8251 24.0268 29.6324 24.0273C29.3509 24.0258 29.0787 24.1279 28.8676 24.314H27.4686C27.3342 24.1665 27.1705 24.0486 26.988 23.9679C26.8054 23.8872 26.608 23.8456 26.4085 23.8456C26.2089 23.8456 26.0115 23.8872 25.8289 23.9679C25.6464 24.0486 25.4827 24.1665 25.3483 24.314H24.0188C23.8077 24.1279 23.5355 24.0258 23.2541 24.0273C23.058 24.023 22.8639 24.0665 22.6884 24.1541C22.5129 24.2416 22.3614 24.3706 22.2469 24.5298C22.1324 24.6891 22.0584 24.8738 22.0313 25.068C22.0042 25.2623 22.0249 25.4602 22.0914 25.6447C22.1579 25.8291 22.2684 25.9946 22.4132 26.1269C22.558 26.2591 22.7329 26.3541 22.9227 26.4036C23.1124 26.4531 23.3114 26.4557 23.5024 26.4111C23.6934 26.3665 23.8706 26.276 24.0188 26.1476H25.2527C25.3031 26.2152 25.3582 26.2791 25.4178 26.3388V27.1208H25.1832C25.1256 27.1208 25.0703 27.1437 25.0296 27.1845C24.9889 27.2252 24.966 27.2805 24.966 27.3381V29.5453H24.5141C24.4565 29.5453 24.4012 29.5682 24.3605 29.6089C24.3197 29.6496 24.2969 29.7049 24.2969 29.7625V31.2919H22.9586C20.7515 31.2942 18.6354 32.172 17.0747 33.7327C15.514 35.2934 14.6362 37.4095 14.6339 39.6167V43.5705C14.4142 43.6267 14.2196 43.7548 14.081 43.9343C13.9425 44.1137 13.8679 44.3344 13.8692 44.5612V44.5612ZM26.9907 27.1208H25.8958V26.6255C26.0686 26.7001 26.2549 26.7386 26.4432 26.7386C26.6315 26.7386 26.8178 26.7001 26.9907 26.6255V27.1208ZM27.4512 29.5453H25.4439V27.564H27.4686L27.4512 29.5453ZM28.1116 31.2832H24.7748V29.9798H28.1116V31.2832ZM29.8496 39.608V31.092H35.0113V40.2684H29.8496V39.608ZM22.9673 39.3908C22.9097 39.3908 22.8544 39.4137 22.8137 39.4544C22.773 39.4951 22.7501 39.5504 22.7501 39.608V43.5358H15.0857V39.608C15.088 37.5184 15.9191 35.515 17.3967 34.0374C18.8743 32.5598 20.8777 31.7287 22.9673 31.7264H29.4064V39.3908H22.9673ZM14.2776 44.5525C14.2798 44.4011 14.341 44.2565 14.448 44.1494C14.5551 44.0423 14.6997 43.9812 14.8511 43.979H22.9586C23.0405 43.9689 23.1235 43.9763 23.2023 44.0008C23.281 44.0252 23.3536 44.0661 23.4154 44.1208C23.4771 44.1754 23.5266 44.2425 23.5605 44.3177C23.5943 44.3929 23.6118 44.4744 23.6118 44.5568C23.6118 44.6393 23.5943 44.7208 23.5605 44.796C23.5266 44.8711 23.4771 44.9383 23.4154 44.9929C23.3536 45.0475 23.281 45.0884 23.2023 45.1129C23.1235 45.1373 23.0405 45.1447 22.9586 45.1347H14.8511C14.7058 45.1238 14.5699 45.0589 14.4702 44.9527C14.3704 44.8465 14.3141 44.7068 14.3123 44.5612L14.2776 44.5525Z" fill="#555555" stroke="#555555" stroke-width="0.868975" stroke-miterlimit="10"/>
<path id="Vector_11" d="M16.076 51.4C14.9029 53.9114 14.9203 55.7883 16.1195 56.9875C16.49 57.359 16.9302 57.6538 17.4148 57.8549C17.8994 58.056 18.419 58.1596 18.9437 58.1596C19.4684 58.1596 19.9879 58.056 20.4725 57.8549C20.9571 57.6538 21.3973 57.359 21.7678 56.9875C22.967 55.7883 22.9757 53.9114 21.8113 51.4C21.0023 49.8723 20.1058 48.3926 19.1261 46.9682C19.1059 46.9379 19.0789 46.9126 19.0472 46.8945C19.0155 46.8764 18.9801 46.866 18.9437 46.864C18.9067 46.8636 18.8704 46.8731 18.8383 46.8914C18.8063 46.9098 18.7796 46.9363 18.7612 46.9682C17.7783 48.3905 16.8817 49.8704 16.076 51.4ZM16.4758 51.5825C17.2178 50.1712 18.0418 48.8046 18.9437 47.4896C19.8455 48.8046 20.6695 50.1712 21.4115 51.5825C22.4891 53.9114 22.5064 55.6232 21.455 56.6747C21.1256 57.0052 20.7342 57.2675 20.3033 57.4464C19.8723 57.6254 19.4103 57.7175 18.9437 57.7175C18.477 57.7175 18.015 57.6254 17.584 57.4464C17.1531 57.2675 16.7617 57.0052 16.4323 56.6747C15.3808 55.6232 15.3896 53.9114 16.4758 51.5825V51.5825Z" fill="#555555" stroke="#555555" stroke-width="0.868975" stroke-miterlimit="10"/>
</g>
</g>
</g>
</g>
<defs>
<clipPath id="clip0_970_3301">
<rect width="44.9868" height="45.5864" fill="white" transform="translate(13 13)"/>
</clipPath>
</defs>
</svg>
