<svg width="70" height="70" viewBox="0 0 70 70" fill="none" xmlns="http://www.w3.org/2000/svg">
<g id="fave_01">
<mask id="mask0_970_3264" style="mask-type:alpha" maskUnits="userSpaceOnUse" x="0" y="0" width="70" height="70">
<rect id="Rectangle 155" width="70" height="70" fill="white"/>
</mask>
<g mask="url(#mask0_970_3264)">
<g id="Group 279">
<g id="Frame" clip-path="url(#clip0_970_3264)">
<path id="Vector" d="M49.8328 34.962H47.7969V23.4743C47.7944 22.3487 47.3462 21.27 46.5503 20.4741C45.7544 19.6781 44.6756 19.2299 43.55 19.2275H43.0433C43.228 18.8848 43.3261 18.5021 43.3289 18.1128V15.4597C43.3265 14.8081 43.0666 14.1839 42.6058 13.7231C42.1451 13.2624 41.5209 13.0024 40.8693 13H28.3959C27.7443 13.0024 27.12 13.2624 26.6593 13.7231C26.1985 14.1839 25.9386 14.8081 25.9362 15.4597V18.1128C25.9404 18.5008 26.0351 18.8825 26.2126 19.2275H25.6874C24.5619 19.2299 23.4831 19.6781 22.6872 20.4741C21.8913 21.27 21.443 22.3487 21.4406 23.4743V34.962H19.4323C18.7807 34.9644 18.1565 35.2244 17.6957 35.6851C17.235 36.1459 16.9751 36.7701 16.9727 37.4217V41.2632C16.9751 42.3879 17.4236 43.4658 18.2198 44.2603C19.0159 45.0547 20.0948 45.5008 21.2195 45.5008H33.9785V48.5225H25.0794C24.1901 48.5225 23.3372 48.8758 22.7083 49.5046C22.0795 50.1335 21.7262 50.9864 21.7262 51.8757V52.3364C21.1477 52.4988 20.6476 52.8652 20.3182 53.3678C19.9889 53.8704 19.8526 54.4752 19.9346 55.0705C20.0166 55.6657 20.3113 56.2112 20.7643 56.606C21.2172 57.0008 21.7978 57.2183 22.3987 57.2183C22.9995 57.2183 23.5801 57.0008 24.033 56.606C24.486 56.2112 24.7807 55.6657 24.8627 55.0705C24.9447 54.4752 24.8085 53.8704 24.4791 53.3678C24.1498 52.8652 23.6497 52.4988 23.0712 52.3364V51.8757C23.0736 51.3439 23.286 50.8344 23.6621 50.4583C24.0382 50.0822 24.5476 49.8699 25.0794 49.8675H33.9785V52.3455C33.3993 52.507 32.8982 52.8728 32.5679 53.3753C32.2376 53.8778 32.1005 54.4828 32.182 55.0786C32.2635 55.6743 32.558 56.2204 33.0111 56.6157C33.4642 57.011 34.0451 57.2288 34.6464 57.2288C35.2477 57.2288 35.8286 57.011 36.2817 56.6157C36.7347 56.2204 37.0292 55.6743 37.1107 55.0786C37.1922 54.4828 37.0551 53.8778 36.7249 53.3753C36.3946 52.8728 35.8935 52.507 35.3143 52.3455V49.8675H44.2133C44.7452 49.8699 45.2546 50.0822 45.6307 50.4583C46.0068 50.8344 46.2192 51.3439 46.2216 51.8757V52.3364C45.6431 52.4988 45.1429 52.8652 44.8136 53.3678C44.4843 53.8704 44.348 54.4752 44.43 55.0705C44.512 55.6657 44.8067 56.2112 45.2597 56.606C45.7126 57.0008 46.2932 57.2183 46.8941 57.2183C47.4949 57.2183 48.0755 57.0008 48.5285 56.606C48.9814 56.2112 49.2761 55.6657 49.3581 55.0705C49.4401 54.4752 49.3038 53.8704 48.9745 53.3678C48.6452 52.8652 48.1451 52.4988 47.5666 52.3364V51.8757C47.5641 50.9871 47.21 50.1356 46.5817 49.5073C45.9534 48.879 45.1019 48.5249 44.2133 48.5225H35.3143V45.5008H48.0456C49.1695 45.5008 50.2474 45.0544 51.0421 44.2597C51.8368 43.465 52.2832 42.3871 52.2832 41.2632V37.4217C52.2832 36.771 52.0254 36.1467 51.5661 35.6857C51.1068 35.2247 50.4835 34.9645 49.8328 34.962V34.962ZM23.541 54.7223C23.5392 54.9479 23.4706 55.1678 23.344 55.3544C23.2174 55.5411 23.0384 55.6861 22.8295 55.7711C22.6206 55.8562 22.3912 55.8774 22.1702 55.8323C21.9492 55.7872 21.7466 55.6777 21.5877 55.5176C21.4289 55.3575 21.321 55.1539 21.2777 54.9326C21.2343 54.7113 21.2575 54.4821 21.3442 54.2739C21.4309 54.0657 21.5774 53.8878 21.765 53.7627C21.9527 53.6376 22.1731 53.5708 22.3987 53.5708C22.5495 53.5708 22.6988 53.6006 22.838 53.6586C22.9772 53.7166 23.1035 53.8016 23.2097 53.9086C23.3159 54.0157 23.3998 54.1427 23.4567 54.2823C23.5136 54.422 23.5422 54.5715 23.541 54.7223V54.7223ZM48.0364 54.7223C48.0364 54.9505 47.9686 55.1735 47.8417 55.363C47.7147 55.5526 47.5343 55.7002 47.3234 55.787C47.1124 55.8739 46.8804 55.8962 46.6568 55.851C46.4332 55.8058 46.228 55.6952 46.0673 55.5333C45.9067 55.3713 45.7977 55.1653 45.7543 54.9413C45.7109 54.7173 45.7351 54.4855 45.8236 54.2752C45.9122 54.065 46.0613 53.8858 46.2518 53.7604C46.4424 53.6349 46.6659 53.569 46.8941 53.5708C47.1979 53.5732 47.4884 53.6956 47.7024 53.9113C47.9163 54.127 48.0364 54.4185 48.0364 54.7223V54.7223ZM27.272 15.4597C27.272 15.1616 27.3904 14.8757 27.6011 14.665C27.8119 14.4542 28.0978 14.3358 28.3959 14.3358H40.8969C41.1934 14.3382 41.4769 14.4577 41.6856 14.6682C41.8944 14.8787 42.0116 15.1632 42.0116 15.4597V18.1128C42.0116 18.4085 41.8941 18.692 41.6851 18.901C41.476 19.1101 41.1925 19.2275 40.8969 19.2275H28.3959C28.0994 19.2275 27.8149 19.1104 27.6044 18.9016C27.3939 18.6928 27.2744 18.4093 27.272 18.1128V15.4597ZM22.804 23.4743C22.8064 22.7039 23.1142 21.9658 23.6599 21.4218C24.2056 20.8779 24.9446 20.5725 25.7151 20.5725H43.5777C44.3473 20.5725 45.0854 20.8782 45.6296 21.4224C46.1738 21.9666 46.4795 22.7047 46.4795 23.4743V39.6971H22.804V23.4743ZM35.8209 54.7315C35.8228 54.9597 35.7568 55.1832 35.6314 55.3738C35.5059 55.5644 35.3267 55.7134 35.1165 55.802C34.9062 55.8905 34.6744 55.9147 34.4504 55.8713C34.2265 55.8279 34.0204 55.7189 33.8585 55.5583C33.6965 55.3976 33.5859 55.1924 33.5407 54.9688C33.4955 54.7452 33.5178 54.5132 33.6047 54.3022C33.6916 54.0913 33.8391 53.9109 34.0287 53.784C34.2183 53.657 34.4413 53.5892 34.6694 53.5892C34.8202 53.588 34.9697 53.6167 35.1094 53.6735C35.249 53.7304 35.376 53.8143 35.4831 53.9205C35.5901 54.0267 35.6751 54.153 35.7331 54.2922C35.7911 54.4314 35.8209 54.5808 35.8209 54.7315ZM50.9751 41.2632C50.9727 42.0321 50.6662 42.7688 50.1225 43.3125C49.5788 43.8561 48.8421 44.1627 48.0732 44.1651H21.2471C20.4783 44.1627 19.7416 43.8561 19.1979 43.3125C18.6542 42.7688 18.3477 42.0321 18.3453 41.2632V37.4217C18.3453 37.1252 18.4624 36.8407 18.6712 36.6302C18.88 36.4197 19.1635 36.3002 19.4599 36.2978H21.4682V40.3696C21.4707 40.5464 21.5426 40.7151 21.6684 40.8392C21.7943 40.9633 21.9639 41.0329 22.1407 41.0329H47.152C47.3288 41.0329 47.4984 40.9633 47.6243 40.8392C47.7502 40.7151 47.8221 40.5464 47.8245 40.3696V36.2978H49.8328C50.1292 36.3002 50.4128 36.4197 50.6215 36.6302C50.8303 36.8407 50.9475 37.1252 50.9475 37.4217L50.9751 41.2632Z" fill="#555555"/>
<path id="Vector_2" d="M42.2691 34.5842H27.0504C26.8737 34.5842 26.704 34.6538 26.5781 34.7779C26.4523 34.9021 26.3804 35.0708 26.3779 35.2475C26.3779 35.4259 26.4488 35.5969 26.5749 35.7231C26.701 35.8492 26.8721 35.92 27.0504 35.92H42.2691C42.4458 35.9176 42.6145 35.8457 42.7387 35.7198C42.8628 35.594 42.9324 35.4243 42.9324 35.2475C42.9324 35.1604 42.9152 35.0742 42.8819 34.9937C42.8485 34.9132 42.7997 34.8401 42.7381 34.7785C42.6765 34.7169 42.6034 34.6681 42.5229 34.6347C42.4424 34.6014 42.3562 34.5842 42.2691 34.5842V34.5842Z" fill="#555555"/>
<path id="Vector_3" d="M42.2691 29.4623H27.0504C26.8721 29.4623 26.701 29.5332 26.5749 29.6593C26.4488 29.7854 26.3779 29.9564 26.3779 30.1348C26.3779 30.3131 26.4488 30.4842 26.5749 30.6103C26.701 30.7364 26.8721 30.8073 27.0504 30.8073H42.2691C42.4474 30.8073 42.6185 30.7364 42.7446 30.6103C42.8707 30.4842 42.9416 30.3131 42.9416 30.1348C42.9416 29.9564 42.8707 29.7854 42.7446 29.6593C42.6185 29.5332 42.4474 29.4623 42.2691 29.4623V29.4623Z" fill="#555555"/>
<path id="Vector_4" d="M42.2705 24.3495H27.0519C26.9576 24.3384 26.862 24.3474 26.7714 24.3759C26.6809 24.4044 26.5973 24.4517 26.5264 24.5148C26.4554 24.5779 26.3986 24.6553 26.3598 24.7419C26.3209 24.8285 26.3008 24.9224 26.3008 25.0174C26.3008 25.1123 26.3209 25.2062 26.3598 25.2928C26.3986 25.3794 26.4554 25.4568 26.5264 25.5199C26.5973 25.583 26.6809 25.6303 26.7714 25.6588C26.862 25.6873 26.9576 25.6963 27.0519 25.6852H42.2705C42.4341 25.666 42.585 25.5873 42.6945 25.4642C42.8039 25.3411 42.8644 25.1821 42.8644 25.0174C42.8644 24.8526 42.8039 24.6936 42.6945 24.5705C42.585 24.4473 42.4341 24.3687 42.2705 24.3495V24.3495Z" fill="#555555"/>
</g>
</g>
</g>
</g>
<defs>
<clipPath id="clip0_970_3264">
<rect width="35.2829" height="44.2188" fill="white" transform="translate(17 13)"/>
</clipPath>
</defs>
</svg>
