<svg width="70" height="70" viewBox="0 0 70 70" fill="none" xmlns="http://www.w3.org/2000/svg">
<g id="fave_11">
<mask id="mask0_970_3299" style="mask-type:alpha" maskUnits="userSpaceOnUse" x="0" y="0" width="70" height="70">
<rect id="Rectangle 288" width="70" height="70" fill="white"/>
</mask>
<g mask="url(#mask0_970_3299)">
<g id="Group 293">
<g id="Frame" clip-path="url(#clip0_970_3299)">
<path id="Vector" d="M56.0541 41.1617C56.0062 41.1039 55.9465 41.0568 55.8791 41.0235C53.7056 39.8277 51.2423 39.2599 48.7647 39.3836C46.287 39.5072 43.8925 40.3174 41.8488 41.7237C39.8661 43.0916 37.5143 43.8242 35.1055 43.8242C32.6967 43.8242 30.3448 43.0916 28.3621 41.7237C26.3184 40.3174 23.9239 39.5072 21.4463 39.3836C18.9686 39.2599 16.5053 39.8277 14.3318 41.0235C14.1986 41.0989 14.0955 41.2181 14.0401 41.3608C13.9847 41.5036 13.9803 41.661 14.0278 41.8066C15.446 46.2846 18.2535 50.1946 22.0433 52.9697C25.8331 55.7447 30.4083 57.2407 35.1055 57.2407C39.8027 57.2407 44.3778 55.7447 48.1676 52.9697C51.9574 50.1946 54.7649 46.2846 56.1831 41.8066C56.2186 41.6971 56.2254 41.5802 56.2028 41.4673C56.1802 41.3544 56.129 41.2492 56.0541 41.1617V41.1617ZM35.1055 55.9013C31.895 55.9142 28.7256 55.1802 25.8476 53.7572C22.9697 52.3342 20.4623 50.2614 18.5234 47.7024C20.1193 47.1785 21.8144 47.029 23.4774 47.2654C25.1404 47.5018 26.7267 48.1179 28.1133 49.0659C30.16 50.4814 32.5893 51.2397 35.0778 51.2397C37.5663 51.2397 39.9957 50.4814 42.0423 49.0659C43.429 48.1179 45.0152 47.5018 46.6782 47.2654C48.3412 47.029 50.0363 47.1785 51.6322 47.7024C49.6971 50.2505 47.1977 52.3153 44.3301 53.7347C41.4626 55.1541 38.3051 55.8894 35.1055 55.8829V55.9013ZM52.4614 46.5601C50.6168 45.8781 48.6345 45.6526 46.6838 45.9028C44.7331 46.1531 42.872 46.8717 41.2593 47.9972C39.451 49.2484 37.3044 49.9187 35.1055 49.9187C32.9066 49.9187 30.7599 49.2484 28.9517 47.9972C27.3339 46.8866 25.4751 46.177 23.5288 45.9271C21.5824 45.6772 19.6046 45.8942 17.7588 46.5601C16.8108 45.1259 16.0464 43.5784 15.4833 41.954C17.3926 41.0136 19.518 40.5989 21.6408 40.7527C23.7635 40.9065 25.8069 41.6233 27.5606 42.8291C29.7793 44.3631 32.4127 45.1849 35.1101 45.1849C37.8074 45.1849 40.4408 44.3631 42.6595 42.8291C44.4149 41.6089 46.465 40.8807 48.5968 40.7204C50.7287 40.56 52.8646 40.9732 54.7828 41.9171C54.2068 43.5502 53.4268 45.104 52.4614 46.5417V46.5601Z" fill="#555555"/>
<path id="Vector_2" d="M35.1058 39.8813C37.8824 39.8692 40.5413 38.7589 42.5021 36.793C44.4628 34.827 45.5661 32.1651 45.5709 29.3886C45.5709 22.7557 35.9441 13.5711 35.5296 13.1842C35.4038 13.069 35.2395 13.0051 35.0689 13.0051C34.8984 13.0051 34.7341 13.069 34.6083 13.1842C34.203 13.5803 24.5762 22.811 24.5762 29.3886C24.5774 30.7693 24.8508 32.1362 25.3809 33.4111C25.9109 34.686 26.6871 35.8438 27.6652 36.8184C28.6432 37.793 29.8038 38.5652 31.0805 39.0907C32.3573 39.6163 33.7251 39.885 35.1058 39.8813V39.8813ZM35.1058 14.6121C37.0312 16.5282 44.2628 24.1007 44.2628 29.3517C44.2628 31.7803 43.298 34.1094 41.5808 35.8267C39.8635 37.544 37.5344 38.5087 35.1058 38.5087C32.6772 38.5087 30.3481 37.544 28.6308 35.8267C26.9136 34.1094 25.9488 31.7803 25.9488 29.3517C25.9488 24.1468 33.1897 16.5835 35.1058 14.6121Z" fill="#555555"/>
<path id="Vector_3" d="M35.1051 35.4227C36.7047 35.4202 38.238 34.7837 39.3691 33.6526C40.5002 32.5216 41.1367 30.9882 41.1391 29.3886C41.1502 29.2943 41.1412 29.1988 41.1127 29.1082C41.0842 29.0176 41.0369 28.9341 40.9738 28.8632C40.9107 28.7922 40.8333 28.7354 40.7467 28.6966C40.6601 28.6577 40.5662 28.6376 40.4712 28.6376C40.3763 28.6376 40.2824 28.6577 40.1958 28.6966C40.1092 28.7354 40.0318 28.7922 39.9687 28.8632C39.9056 28.9341 39.8583 29.0176 39.8298 29.1082C39.8013 29.1988 39.7923 29.2943 39.8034 29.3886C39.8009 30.6331 39.3048 31.8257 38.424 32.7048C37.5432 33.584 36.3496 34.0777 35.1051 34.0777C34.9268 34.0777 34.7557 34.1485 34.6296 34.2747C34.5035 34.4008 34.4326 34.5718 34.4326 34.7502C34.4326 34.9285 34.5035 35.0996 34.6296 35.2257C34.7557 35.3518 34.9268 35.4227 35.1051 35.4227V35.4227Z" fill="#555555"/>
</g>
</g>
</g>
</g>
<defs>
<clipPath id="clip0_970_3299">
<rect width="42.2198" height="44.2188" fill="white" transform="translate(14 13)"/>
</clipPath>
</defs>
</svg>
