<svg width="70" height="70" viewBox="0 0 70 70" fill="none" xmlns="http://www.w3.org/2000/svg">
<g id="fave_09">
<mask id="mask0_970_3291" style="mask-type:alpha" maskUnits="userSpaceOnUse" x="0" y="0" width="70" height="70">
<rect id="Rectangle 286" width="70" height="70" fill="white"/>
</mask>
<g mask="url(#mask0_970_3291)">
<g id="Group 292">
<g id="Frame" clip-path="url(#clip0_970_3291)">
<path id="Vector" d="M53.1845 20.1487C51.4742 20.1487 49.834 19.4693 48.6247 18.26C47.4153 17.0506 46.7359 15.4104 46.7359 13.7001C46.736 13.5234 46.6664 13.3537 46.5422 13.2278C46.4181 13.102 46.2494 13.0301 46.0726 13.0276H22.8117C22.6349 13.0301 22.4662 13.102 22.3421 13.2278C22.218 13.3537 22.1484 13.5234 22.1484 13.7001C22.1484 15.4104 21.469 17.0506 20.2597 18.26C19.0503 19.4693 17.4101 20.1487 15.6998 20.1487C15.5215 20.1487 15.3504 20.2196 15.2243 20.3457C15.0982 20.4718 15.0273 20.6429 15.0273 20.8212V37.7718C15.0273 48.4488 33.3966 56.7951 34.1796 57.1175C34.2672 57.154 34.3611 57.1728 34.456 57.1728C34.5509 57.1728 34.6448 57.154 34.7324 57.1175C35.5154 56.7674 53.8847 48.4211 53.8847 37.7718V20.8212C53.8847 20.7305 53.8665 20.6408 53.8309 20.5573C53.7954 20.4739 53.7434 20.3985 53.678 20.3356C53.6126 20.2728 53.5352 20.2239 53.4504 20.1917C53.3656 20.1596 53.2751 20.145 53.1845 20.1487V20.1487ZM52.5212 37.7718C52.5212 46.9195 36.7222 54.7131 34.4284 55.7909C32.1437 54.7315 16.3355 46.984 16.3355 37.7718V21.4661C18.1698 21.3044 19.8886 20.5022 21.1907 19.2002C22.4927 17.8981 23.2949 16.1793 23.4566 14.345H45.4002C45.5618 16.1793 46.364 17.8981 47.6661 19.2002C48.9681 20.5022 50.687 21.3044 52.5212 21.4661V37.7718Z" fill="#555555"/>
<path id="Vector_2" d="M34.9065 20.0658C34.7818 19.9485 34.6171 19.8832 34.4459 19.8832C34.2747 19.8832 34.11 19.9485 33.9853 20.0658C33.5707 20.4527 23.9531 29.6833 23.9531 36.2609C23.9531 39.0437 25.0586 41.7126 27.0264 43.6804C28.9942 45.6482 31.663 46.7537 34.4459 46.7537C37.2287 46.7537 39.8976 45.6482 41.8654 43.6804C43.8332 41.7126 44.9386 39.0437 44.9386 36.2609C44.9202 29.6373 35.2934 20.4619 34.9065 20.0658ZM34.4459 45.4271C32.0218 45.4126 29.7011 44.4432 27.9869 42.7291C26.2728 41.0149 25.3034 38.6942 25.2889 36.2701C25.2889 31.0283 32.5297 23.419 34.4459 21.5305C36.362 23.4466 43.6029 31.0283 43.6029 36.2701C43.5883 38.6974 42.6164 41.0209 40.8983 42.7355C39.1802 44.4502 36.8548 45.4174 34.4275 45.4271H34.4459Z" fill="#555555"/>
<path id="Vector_3" d="M33.7559 41.6317C33.7559 41.72 33.7733 41.8074 33.8071 41.889C33.8409 41.9706 33.8904 42.0447 33.9528 42.1072C34.0153 42.1696 34.0894 42.2192 34.171 42.253C34.2526 42.2868 34.34 42.3042 34.4284 42.3042C36.0279 42.3017 37.5613 41.6652 38.6924 40.5341C39.8234 39.4031 40.4599 37.8697 40.4624 36.2701C40.4624 36.0918 40.3915 35.9207 40.2654 35.7946C40.1393 35.6685 39.9682 35.5977 39.7899 35.5977C39.702 35.5976 39.615 35.6151 39.5339 35.649C39.4528 35.6829 39.3793 35.7326 39.3176 35.7952C39.2559 35.8577 39.2072 35.9319 39.1744 36.0135C39.1416 36.095 39.1254 36.1823 39.1266 36.2701C39.1242 37.5146 38.6281 38.7073 37.7473 39.5864C36.8664 40.4655 35.6728 40.9592 34.4284 40.9592C34.25 40.9592 34.0789 41.03 33.9528 41.1561C33.8267 41.2823 33.7559 41.4533 33.7559 41.6317V41.6317Z" fill="#555555"/>
</g>
</g>
</g>
</g>
<defs>
<clipPath id="clip0_970_3291">
<rect width="38.8573" height="44.2188" fill="white" transform="translate(15 13)"/>
</clipPath>
</defs>
</svg>
