<svg width="70" height="70" viewBox="0 0 70 70" fill="none" xmlns="http://www.w3.org/2000/svg">
<g id="fave_10">
<mask id="mask0_970_3297" style="mask-type:alpha" maskUnits="userSpaceOnUse" x="0" y="0" width="70" height="70">
<rect id="Rectangle 287" width="70" height="70" fill="white"/>
</mask>
<g mask="url(#mask0_970_3297)">
<g id="Group 278">
<g id="Frame" clip-path="url(#clip0_970_3297)">
<path id="Vector" d="M39.1065 28.495C38.9839 28.6208 38.9146 28.7891 38.9131 28.9648C38.9135 29.0969 38.9528 29.226 39.0262 29.3359C39.0995 29.4458 39.2036 29.5317 39.3255 29.5828C39.4474 29.6339 39.5816 29.648 39.7114 29.6233C39.8412 29.5985 39.9609 29.5361 40.0554 29.4438C40.1181 29.381 40.1675 29.3062 40.2007 29.2239C40.2339 29.1416 40.2503 29.0535 40.2489 28.9648C40.2507 28.8774 40.2344 28.7905 40.2011 28.7097C40.1678 28.6289 40.1182 28.5558 40.0554 28.495C39.9261 28.3758 39.7568 28.3097 39.581 28.3097C39.4052 28.3097 39.2358 28.3758 39.1065 28.495V28.495Z" fill="#555555"/>
<path id="Vector_2" d="M34.9889 28.3015C34.901 28.3003 34.8138 28.3166 34.7322 28.3494C34.6507 28.3821 34.5765 28.4308 34.5139 28.4925C34.4514 28.5542 34.4017 28.6278 34.3678 28.7088C34.3339 28.7899 34.3164 28.8769 34.3164 28.9648C34.3164 29.1432 34.3873 29.3142 34.5134 29.4404C34.6395 29.5665 34.8106 29.6373 34.9889 29.6373C35.1673 29.6373 35.3383 29.5665 35.4644 29.4404C35.5905 29.3142 35.6614 29.1432 35.6614 28.9648C35.6627 28.8766 35.6461 28.789 35.6126 28.7074C35.5792 28.6257 35.5295 28.5516 35.4667 28.4897C35.4039 28.4277 35.3291 28.3791 35.247 28.3468C35.1649 28.3144 35.0771 28.299 34.9889 28.3015V28.3015Z" fill="#555555"/>
<path id="Vector_3" d="M31.0738 28.9648C31.0756 28.8774 31.0594 28.7906 31.0261 28.7097C30.9928 28.6289 30.9432 28.5558 30.8804 28.495C30.7528 28.3836 30.5892 28.3221 30.4198 28.3221C30.2504 28.3221 30.0867 28.3836 29.9592 28.495C29.8365 28.6208 29.7672 28.7891 29.7657 28.9648C29.7644 29.0535 29.781 29.1415 29.8144 29.2236C29.8477 29.3058 29.8972 29.3804 29.9599 29.4431C30.0226 29.5058 30.0972 29.5553 30.1794 29.5887C30.2615 29.622 30.3495 29.6386 30.4382 29.6373C30.6133 29.6331 30.7807 29.5642 30.908 29.4439C31.0245 29.3124 31.0842 29.1402 31.0738 28.9648V28.9648Z" fill="#555555"/>
<path id="Vector_4" d="M44.4044 19.2367C44.4044 19.1483 44.387 19.0609 44.3532 18.9793C44.3194 18.8977 44.2699 18.8236 44.2074 18.7611C44.145 18.6987 44.0709 18.6491 43.9893 18.6153C43.9077 18.5815 43.8202 18.5642 43.7319 18.5642H26.2286C26.1343 18.5531 26.0387 18.5621 25.9482 18.5906C25.8576 18.6191 25.7741 18.6664 25.7032 18.7295C25.6322 18.7926 25.5754 18.87 25.5365 18.9566C25.4976 19.0432 25.4775 19.1371 25.4775 19.232C25.4775 19.327 25.4976 19.4209 25.5365 19.5075C25.5754 19.5941 25.6322 19.6715 25.7032 19.7346C25.7741 19.7977 25.8576 19.845 25.9482 19.8735C26.0387 19.902 26.1343 19.911 26.2286 19.8999H43.7319C43.9087 19.9 44.0783 19.8304 44.2042 19.7062C44.33 19.5821 44.402 19.4134 44.4044 19.2367Z" fill="#555555"/>
<path id="Vector_5" d="M34.9992 49.2133C35.1751 49.2133 35.3438 49.1434 35.4682 49.019C35.5926 48.8946 35.6625 48.7259 35.6625 48.55C35.6625 48.3741 35.5926 48.2054 35.4682 48.081C35.3438 47.9566 35.1751 47.8867 34.9992 47.8867C34.8233 47.8867 34.6546 47.9566 34.5302 48.081C34.4058 48.2054 34.3359 48.3741 34.3359 48.55C34.3359 48.7259 34.4058 48.8946 34.5302 49.019C34.6546 49.1434 34.8233 49.2133 34.9992 49.2133V49.2133Z" fill="#555555"/>
<path id="Vector_6" d="M53.681 18.5643H48.6143C47.6959 16.8881 46.3429 15.4902 44.6975 14.5176C43.0522 13.5449 41.1752 13.0335 39.2639 13.0369H30.7794C28.868 13.0335 26.9911 13.5449 25.3457 14.5176C23.7003 15.4902 22.3474 16.8881 21.4289 18.5643H16.3622C15.4785 18.5667 14.6317 18.9188 14.0068 19.5437C13.3819 20.1686 13.0298 21.0154 13.0273 21.8991V48.5226C13.0298 49.4111 13.3838 50.2626 14.0122 50.891C14.6405 51.5193 15.492 51.8734 16.3806 51.8758H27.8867L26.5141 55.8924H21.6684C21.5801 55.8924 21.4927 55.9098 21.4111 55.9436C21.3295 55.9773 21.2554 56.0269 21.1929 56.0893C21.1305 56.1518 21.0809 56.2259 21.0471 56.3075C21.0133 56.3891 20.996 56.4765 20.996 56.5649C20.996 56.6532 21.0133 56.7406 21.0471 56.8222C21.0809 56.9038 21.1305 56.9779 21.1929 57.0404C21.2554 57.1028 21.3295 57.1523 21.4111 57.1861C21.4927 57.2199 21.5801 57.2373 21.6684 57.2373H48.3195C48.4979 57.2373 48.6689 57.1665 48.795 57.0404C48.9212 56.9143 48.992 56.7432 48.992 56.5649C48.992 56.3865 48.9212 56.2154 48.795 56.0893C48.6689 55.9632 48.4979 55.8924 48.3195 55.8924H43.4739L42.1473 51.9035H53.681C54.5704 51.9035 55.4233 51.5502 56.0522 50.9213C56.681 50.2925 57.0343 49.4395 57.0343 48.5502V21.8991C57.0343 21.4596 56.9475 21.0245 56.7787 20.6187C56.61 20.2129 56.3627 19.8444 56.051 19.5345C55.7394 19.2246 55.3696 18.9793 54.9629 18.8128C54.5562 18.6463 54.1205 18.5619 53.681 18.5643V18.5643ZM48.9183 24.3035H49.5632C50.0062 24.306 50.4303 24.4837 50.7428 24.7978C51.0552 25.112 51.2306 25.5371 51.2306 25.9802V31.9405C51.2318 32.1602 51.1896 32.3781 51.1063 32.5814C51.0231 32.7848 50.9004 32.9697 50.7455 33.1255C50.5905 33.2813 50.4063 33.4049 50.2034 33.4893C50.0005 33.5737 49.7829 33.6171 49.5632 33.6171H48.9183C48.6973 33.6183 48.4783 33.5759 48.2738 33.4922C48.0694 33.4084 47.8834 33.2851 47.7268 33.1293C47.5701 32.9735 47.4458 32.7883 47.361 32.5842C47.2761 32.3802 47.2325 32.1614 47.2325 31.9405V25.9709C47.2372 25.5318 47.4132 25.1118 47.7228 24.8004C48.0325 24.489 48.4515 24.3107 48.8907 24.3035H48.9183ZM22.8015 25.9802V31.9405C22.8028 32.161 22.7602 32.3796 22.6764 32.5836C22.5926 32.7875 22.4691 32.9728 22.3132 33.1288C22.1573 33.2847 21.972 33.4082 21.768 33.492C21.564 33.5758 21.3454 33.6183 21.1249 33.6171H20.4893C20.0446 33.6171 19.6181 33.4405 19.3037 33.126C18.9893 32.8116 18.8126 32.3852 18.8126 31.9405V25.9709C18.8151 25.527 18.9925 25.102 19.3064 24.7881C19.6203 24.4741 20.0454 24.2967 20.4893 24.2943H21.1249C21.5664 24.3016 21.9872 24.4827 22.2959 24.7983C22.6046 25.114 22.7764 25.5386 22.7739 25.9802H22.8015ZM27.9604 55.8739L29.287 51.885H40.7562L42.092 55.8739H27.9604ZM55.6801 48.5041C55.6838 48.7698 55.6349 49.0337 55.5363 49.2804C55.4377 49.5272 55.2913 49.7521 55.1055 49.9421C54.9198 50.1321 54.6983 50.2836 54.4539 50.3878C54.2094 50.492 53.9468 50.5469 53.681 50.5493H16.353C16.088 50.5481 15.8259 50.4947 15.5816 50.3922C15.3373 50.2897 15.1156 50.14 14.9291 49.9518C14.7426 49.7636 14.595 49.5405 14.4947 49.2953C14.3945 49.0501 14.3435 48.7875 14.3447 48.5226V46.5419H55.6525L55.6801 48.5041ZM55.6801 45.1877H14.3447V21.8991C14.3447 21.3705 14.554 20.8634 14.927 20.4888C15.2999 20.1142 15.806 19.9025 16.3346 19.9001H20.8025C20.427 20.8926 20.2033 21.9361 20.1392 22.9954C19.4013 23.0746 18.7183 23.4226 18.2204 23.9731C17.7226 24.5236 17.4448 25.238 17.44 25.9802V31.9405C17.44 32.3373 17.5182 32.7302 17.67 33.0968C17.8219 33.4634 18.0445 33.7965 18.325 34.0771C18.6056 34.3577 18.9387 34.5803 19.3053 34.7321C19.6719 34.884 20.0648 34.9621 20.4616 34.9621H21.0973C21.8987 34.9621 22.6672 34.6438 23.2339 34.0771C23.8006 33.5104 24.1189 32.7419 24.1189 31.9405V25.9709C24.1138 25.2402 23.844 24.5361 23.3596 23.989C22.8752 23.4419 22.2089 23.0889 21.4842 22.9954C21.643 20.6451 22.6882 18.4427 24.4085 16.8335C26.1289 15.2243 28.3961 14.3283 30.7517 14.3267H39.2362C41.5913 14.3305 43.8572 15.2272 45.5771 16.836C47.297 18.4447 48.3429 20.6459 48.5038 22.9954C47.7799 23.0891 47.1147 23.4425 46.6318 23.9898C46.1489 24.5371 45.8811 25.2411 45.8783 25.9709V31.9405C45.8792 32.6709 46.1463 33.376 46.6295 33.9237C47.1128 34.4714 47.7791 34.8242 48.5038 34.9161C48.3463 36.506 47.6042 37.9808 46.4213 39.0548C45.2384 40.1287 43.6989 40.7254 42.1012 40.729H38.7572C39.0401 40.2936 39.1998 39.7897 39.2193 39.2708C39.2389 38.7519 39.1174 38.2375 38.868 37.7821C38.6186 37.3267 38.2504 36.9474 37.8027 36.6844C37.355 36.4214 36.8444 36.2847 36.3252 36.2887H33.6628C33.2698 36.2665 32.8764 36.3247 32.5068 36.4598C32.1371 36.5949 31.7988 36.804 31.5128 37.0744C31.2267 37.3448 30.9988 37.6707 30.8431 38.0321C30.6873 38.3936 30.607 38.7831 30.607 39.1767C30.607 39.5703 30.6873 39.9598 30.8431 40.3213C30.9988 40.6828 31.2267 41.0087 31.5128 41.279C31.7988 41.5494 32.1371 41.7585 32.5068 41.8936C32.8764 42.0287 33.2698 42.087 33.6628 42.0647H42.1012C44.0518 42.0601 45.9297 41.3242 47.3641 40.0024C48.7985 38.6806 49.685 36.8689 49.8487 34.9252C50.5883 34.85 51.2736 34.5032 51.7722 33.9518C52.2708 33.4005 52.5472 32.6838 52.5479 31.9405V25.9709C52.5451 25.2282 52.2681 24.5126 51.7699 23.9617C51.2717 23.4108 50.5875 23.0634 49.8487 22.9862C49.7846 21.9269 49.561 20.8834 49.1855 19.8909H53.681C54.2105 19.8933 54.7175 20.1047 55.0919 20.479C55.4663 20.8534 55.6777 21.3605 55.6801 21.8899V45.1877ZM37.9097 39.1537C37.9097 39.5666 37.7456 39.9626 37.4537 40.2546C37.1617 40.5465 36.7657 40.7105 36.3528 40.7105H33.6904C33.4765 40.727 33.2615 40.6992 33.0589 40.6286C32.8563 40.5581 32.6705 40.4464 32.513 40.3007C32.3556 40.1549 32.23 39.9782 32.1441 39.7816C32.0582 39.5851 32.0139 39.3728 32.0139 39.1583C32.0139 38.9437 32.0582 38.7315 32.1441 38.5349C32.23 38.3384 32.3556 38.1616 32.513 38.0159C32.6705 37.8701 32.8563 37.7585 33.0589 37.688C33.2615 37.6174 33.4765 37.5895 33.6904 37.606H36.3528C36.7641 37.6133 37.1558 37.7831 37.4423 38.0782C37.7289 38.3734 37.887 38.77 37.882 39.1813L37.9097 39.1537Z" fill="#555555"/>
<g id="Vector_7">
<path id="Vector_8" d="M53.6537 18.5274H48.587C47.6685 16.8512 46.3155 15.4533 44.6702 14.4806C43.0248 13.508 41.1479 12.9966 39.2365 13H30.752C28.8407 12.9966 26.9637 13.508 25.3184 14.4806C23.673 15.4533 22.32 16.8512 21.4016 18.5274H16.3348C15.4511 18.5298 14.6043 18.8819 13.9794 19.5068C13.3546 20.1317 13.0024 20.9785 13 21.8622V48.4856C13.0024 49.3742 13.3565 50.2257 13.9848 50.8541C14.6132 51.4824 15.4647 51.8365 16.3533 51.8389H27.8594L26.4867 55.8554H21.6411C21.5528 55.8554 21.4653 55.8728 21.3838 55.9066C21.3022 55.9404 21.228 55.9899 21.1656 56.0524C21.1031 56.1148 21.0536 56.189 21.0198 56.2706C20.986 56.3522 20.9686 56.4396 20.9686 56.5279C20.9686 56.6162 20.986 56.7037 21.0198 56.7853C21.0536 56.8669 21.1031 56.941 21.1656 57.0034C21.228 57.0659 21.3022 57.1154 21.3838 57.1492C21.4653 57.183 21.5528 57.2004 21.6411 57.2004H48.2922C48.4705 57.2004 48.6416 57.1296 48.7677 57.0034C48.8938 56.8773 48.9647 56.7063 48.9647 56.5279C48.9647 56.3496 48.8938 56.1785 48.7677 56.0524C48.6416 55.9263 48.4705 55.8554 48.2922 55.8554H43.4465L42.12 51.8665H53.6537C54.543 51.8665 55.396 51.5132 56.0248 50.8844C56.6537 50.2555 57.007 49.4026 57.007 48.5133V21.8622C57.007 21.4227 56.9201 20.9876 56.7514 20.5817C56.5826 20.1759 56.3353 19.8075 56.0237 19.4976C55.7121 19.1877 55.3423 18.9424 54.9355 18.7759C54.5288 18.6094 54.0932 18.5249 53.6537 18.5274V18.5274ZM48.8909 24.2666H49.5358C49.9789 24.269 50.403 24.4467 50.7154 24.7609C51.0279 25.0751 51.2032 25.5001 51.2032 25.9432V31.9036C51.2044 32.1233 51.1622 32.3411 51.079 32.5445C50.9957 32.7479 50.8731 32.9328 50.7181 33.0886C50.5632 33.2444 50.379 33.368 50.176 33.4524C49.9731 33.5368 49.7556 33.5802 49.5358 33.5802H48.8909C48.67 33.5814 48.451 33.5389 48.2465 33.4552C48.042 33.3715 47.8561 33.2482 47.6994 33.0924C47.5428 32.9366 47.4185 32.7513 47.3336 32.5473C47.2488 32.3433 47.2051 32.1245 47.2051 31.9036V25.934C47.2099 25.4948 47.3858 25.0749 47.6955 24.7634C48.0052 24.452 48.4242 24.2738 48.8633 24.2666H48.8909ZM22.7742 25.9432V31.9036C22.7754 32.1241 22.7329 32.3427 22.6491 32.5466C22.5652 32.7506 22.4418 32.9359 22.2859 33.0918C22.1299 33.2478 21.9446 33.3712 21.7406 33.4551C21.5367 33.5389 21.3181 33.5814 21.0976 33.5802H20.4619C20.0173 33.5802 19.5908 33.4035 19.2764 33.0891C18.9619 32.7747 18.7853 32.3482 18.7853 31.9036V25.934C18.7877 25.4901 18.9651 25.065 19.2791 24.7511C19.593 24.4372 20.018 24.2598 20.4619 24.2574H21.0976C21.539 24.2647 21.9598 24.4458 22.2686 24.7614C22.5773 25.0771 22.7491 25.5017 22.7466 25.9432H22.7742ZM27.9331 55.837L29.2596 51.8481H40.7289L42.0647 55.837H27.9331ZM55.6528 48.4672C55.6564 48.7329 55.6075 48.9967 55.5089 49.2435C55.4103 49.4903 55.2639 49.7151 55.0782 49.9052C54.8924 50.0952 54.671 50.2467 54.4265 50.3508C54.1821 50.455 53.9194 50.5099 53.6537 50.5123H16.3256C16.0607 50.5111 15.7986 50.4577 15.5543 50.3552C15.31 50.2527 15.0882 50.1031 14.9017 49.9149C14.7153 49.7267 14.5677 49.5036 14.4674 49.2584C14.3671 49.0131 14.3161 48.7506 14.3174 48.4856V46.505H55.6251L55.6528 48.4672ZM55.6528 45.1508H14.3174V21.8622C14.3174 21.3336 14.5267 20.8265 14.8996 20.4519C15.2725 20.0773 15.7786 19.8656 16.3072 19.8631H20.7751C20.3996 20.8557 20.176 21.8992 20.1119 22.9585C19.3739 23.0376 18.6909 23.3857 18.1931 23.9361C17.6953 24.4866 17.4175 25.2011 17.4127 25.9432V31.9036C17.4127 32.3004 17.4908 32.6933 17.6427 33.0599C17.7945 33.4265 18.0171 33.7596 18.2977 34.0402C18.5783 34.3207 18.9114 34.5433 19.278 34.6952C19.6446 34.847 20.0375 34.9252 20.4343 34.9252H21.0699C21.8713 34.9252 22.6399 34.6068 23.2066 34.0402C23.7732 33.4735 24.0916 32.7049 24.0916 31.9036V25.934C24.0864 25.2033 23.8167 24.4992 23.3323 23.9521C22.8478 23.405 22.1816 23.052 21.4569 22.9585C21.6156 20.6082 22.6608 18.4058 24.3812 16.7966C26.1015 15.1874 28.3687 14.2914 30.7244 14.2897H39.2089C41.5639 14.2936 43.8299 15.1903 45.5498 16.799C47.2697 18.4078 48.3155 20.6089 48.4764 22.9585C47.7526 23.0522 47.0874 23.4056 46.6045 23.9528C46.1216 24.5001 45.8538 25.2041 45.8509 25.934V31.9036C45.8518 32.634 46.1189 33.339 46.6022 33.8867C47.0855 34.4345 47.7518 34.7873 48.4764 34.8791C48.3189 36.469 47.5768 37.9439 46.3939 39.0178C45.211 40.0918 43.6716 40.6884 42.0739 40.6921H38.7298C39.0128 40.2567 39.1725 39.7528 39.192 39.2339C39.2115 38.715 39.0901 38.2006 38.8407 37.7452C38.5912 37.2898 38.2231 36.9104 37.7754 36.6475C37.3276 36.3845 36.817 36.2478 36.2978 36.2517H33.6355C33.2425 36.2295 32.8491 36.2878 32.4794 36.4229C32.1097 36.558 31.7715 36.7671 31.4854 37.0375C31.1993 37.3078 30.9715 37.6337 30.8157 37.9952C30.66 38.3567 30.5796 38.7462 30.5796 39.1398C30.5796 39.5334 30.66 39.9229 30.8157 40.2844C30.9715 40.6458 31.1993 40.9717 31.4854 41.2421C31.7715 41.5125 32.1097 41.7216 32.4794 41.8567C32.8491 41.9918 33.2425 42.05 33.6355 42.0278H42.0739C44.0244 42.0232 45.9024 41.2873 47.3367 39.9655C48.7711 38.6436 49.6577 36.832 49.8214 34.8883C50.5609 34.8131 51.2463 34.4663 51.7449 33.9149C52.2435 33.3636 52.5198 32.6469 52.5206 31.9036V25.934C52.5178 25.1912 52.2407 24.4757 51.7425 23.9248C51.2443 23.3739 50.5601 23.0265 49.8214 22.9492C49.7573 21.89 49.5337 20.8465 49.1581 19.8539H53.6537C54.1831 19.8564 54.6902 20.0677 55.0646 20.4421C55.439 20.8165 55.6503 21.3235 55.6528 21.853V45.1508ZM37.8823 39.1167C37.8823 39.5297 37.7183 39.9257 37.4263 40.2176C37.1343 40.5096 36.7384 40.6736 36.3254 40.6736H33.6631C33.4492 40.6901 33.2342 40.6622 33.0316 40.5917C32.829 40.5212 32.6431 40.4095 32.4857 40.2638C32.3283 40.118 32.2027 39.9413 32.1168 39.7447C32.0309 39.5481 31.9866 39.3359 31.9866 39.1214C31.9866 38.9068 32.0309 38.6946 32.1168 38.498C32.2027 38.3014 32.3283 38.1247 32.4857 37.979C32.6431 37.8332 32.829 37.7216 33.0316 37.651C33.2342 37.5805 33.4492 37.5526 33.6631 37.5691H36.3254C36.7368 37.5764 37.1285 37.7461 37.415 38.0413C37.7015 38.3365 37.8596 38.733 37.8547 39.1444L37.8823 39.1167Z" fill="#555555"/>
</g>
</g>
</g>
</g>
</g>
<defs>
<clipPath id="clip0_970_3297">
<rect width="43.9885" height="44.2188" fill="white" transform="translate(13 13)"/>
</clipPath>
</defs>
</svg>
