<svg width="70" height="70" viewBox="0 0 70 70" fill="none" xmlns="http://www.w3.org/2000/svg">
<g id="fave_12">
<mask id="mask0_970_3302" style="mask-type:alpha" maskUnits="userSpaceOnUse" x="0" y="0" width="70" height="70">
<rect id="Rectangle 289" width="70" height="70" fill="white"/>
</mask>
<g mask="url(#mask0_970_3302)">
<g id="Group 284">
<g id="Frame" clip-path="url(#clip0_970_3302)">
<path id="Vector" d="M35.1098 20.5909C32.2379 20.5891 29.43 21.439 27.0412 23.0332C24.6524 24.6274 22.7901 26.8943 21.6898 29.547C20.5895 32.1998 20.3007 35.1193 20.8599 37.9362C21.419 40.7531 22.8011 43.3409 24.8312 45.3723C26.8612 47.4037 29.4482 48.7873 32.2648 49.3483C35.0813 49.9092 38.001 49.6223 40.6544 48.5237C43.3079 47.4251 45.5759 45.5642 47.1716 43.1764C48.7673 40.7887 49.6191 37.9813 49.6191 35.1094C49.6142 31.262 48.0843 27.5733 45.3646 24.8519C42.6449 22.1305 38.9572 20.5982 35.1098 20.5909ZM33.2673 22.0741C31.5603 23.8121 30.106 25.7813 28.9468 27.9238C27.7258 27.4459 26.5484 26.8633 25.4277 26.1827C27.4898 23.9463 30.2637 22.4942 33.2765 22.0741H33.2673ZM24.5617 27.2329C25.7763 27.9678 27.0487 28.6025 28.3664 29.1307C27.6078 30.8044 27.1614 32.6027 27.049 34.4369H21.9547C22.088 31.8282 22.9992 29.3192 24.5709 27.2329H24.5617ZM24.5617 42.9859C22.995 40.8941 22.0874 38.3828 21.9547 35.7727H27.0214C27.1338 37.6069 27.5802 39.4052 28.3387 41.079C27.0334 41.6118 25.7733 42.2496 24.5709 42.9859H24.5617ZM25.4277 44.0269C26.5524 43.3535 27.7291 42.7713 28.9468 42.2858C30.107 44.4305 31.5612 46.4026 33.2673 48.1448C30.26 47.7173 27.4933 46.2624 25.4369 44.0269H25.4277ZM34.4281 47.3986C32.7833 45.7577 31.3728 43.8977 30.2365 41.8712C31.5951 41.4378 33.0039 41.1808 34.4281 41.1066V47.3986ZM34.4281 39.734C32.7966 39.8198 31.1847 40.1298 29.6377 40.6552C28.9237 39.1282 28.4989 37.4821 28.3848 35.8003H34.4281V39.734ZM34.4281 34.4369H28.3848C28.5001 32.7583 28.9248 31.1154 29.6377 29.5913C31.1858 30.1122 32.7971 30.4221 34.4281 30.5125V34.4369ZM34.4281 29.1399C33.0043 29.0687 31.5955 28.8148 30.2365 28.3845C31.3703 26.3424 32.7808 24.4669 34.4281 22.811V29.1399ZM44.7642 26.1827C43.6435 26.8633 42.4661 27.4459 41.2451 27.9238C40.0891 25.7793 38.6344 23.8097 36.9246 22.0741C39.9374 22.4942 42.7113 23.9463 44.7734 26.1827H44.7642ZM35.7638 22.811C37.4111 24.4669 38.8216 26.3424 39.9554 28.3845C38.5964 28.8148 37.1876 29.0687 35.7638 29.1399V22.811ZM35.7638 30.4849C37.3978 30.3945 39.0121 30.0846 40.5634 29.5636C41.2693 31.0897 41.6908 32.7318 41.8071 34.4093H35.773L35.7638 30.4849ZM35.7638 35.7727H41.8071C41.6919 37.4533 41.2704 39.0986 40.5634 40.6276C39.0133 40.1023 37.3983 39.7923 35.7638 39.7063V35.7727ZM35.7638 41.0697C37.188 41.1439 38.5968 41.4009 39.9554 41.8344C38.8191 43.8608 37.4086 45.7208 35.7638 47.3617V41.0697ZM36.9246 48.1448C38.6335 46.405 40.088 44.4325 41.2451 42.2858C42.4627 42.7713 43.6395 43.3535 44.7642 44.0269C42.7078 46.2624 39.9411 47.7173 36.9338 48.1448H36.9246ZM45.6302 42.9859C44.417 42.2459 43.1444 41.6081 41.8255 41.079C42.5882 39.4066 43.0349 37.6076 43.1429 35.7727H48.2096C48.0921 38.3797 47.1969 40.892 45.6394 42.9859H45.6302ZM48.2372 34.4369H43.1429C43.0349 32.602 42.5882 30.803 41.8255 29.1307C43.144 28.6044 44.4166 27.9696 45.6302 27.2329C47.1923 29.3216 48.0909 31.8314 48.2096 34.4369H48.2372Z" fill="#555555"/>
<path id="Vector_2" d="M57.2193 35.1096C57.211 31.0674 56.0946 27.1049 53.9917 23.6528C51.8887 20.2007 48.8796 17.3912 45.2916 15.5298C41.7035 13.6683 37.6738 12.8261 33.6406 13.0948C29.6073 13.3634 25.7249 14.7326 22.4154 17.0535C21.7334 16.4599 20.8599 16.1328 19.9558 16.1323C19.2282 16.1279 18.5149 16.3338 17.9015 16.7251C17.2881 17.1165 16.8009 17.6767 16.4983 18.3383C16.1957 19 16.0906 19.735 16.1957 20.4549C16.3008 21.1748 16.6116 21.8491 17.0908 22.3966C14.1321 26.6545 12.7639 31.8168 13.2255 36.9811C13.6871 42.1454 15.9489 46.9833 19.6158 50.649C23.2826 54.3147 28.1211 56.5752 33.2856 57.0352C38.45 57.4952 43.6119 56.1255 47.8689 53.1656C48.5917 53.7818 49.5202 54.1031 50.4693 54.0654C51.4184 54.0277 52.3185 53.6338 52.9901 52.9621C53.6618 52.2905 54.0557 51.3904 54.0934 50.4413C54.1311 49.4922 53.8098 48.5637 53.1936 47.8409C55.8221 44.1167 57.2289 39.6679 57.2193 35.1096V35.1096ZM19.9189 17.4681C20.4062 17.4662 20.883 17.6092 21.2889 17.8788C21.6948 18.1483 22.0115 18.5324 22.1988 18.9822C22.3861 19.432 22.4356 19.9273 22.341 20.4053C22.2464 20.8833 22.0119 21.3224 21.6674 21.667C21.3228 22.0115 20.8837 22.246 20.4057 22.3406C19.9277 22.4352 19.4324 22.3857 18.9826 22.1984C18.5328 22.0111 18.1487 21.6944 17.8791 21.2885C17.6096 20.8826 17.4666 20.4058 17.4685 19.9185C17.4709 19.2694 17.7298 18.6475 18.1889 18.1885C18.6479 17.7295 19.2698 17.4705 19.9189 17.4681V17.4681ZM50.3194 52.751C49.8329 52.751 49.3574 52.6068 48.9529 52.3365C48.5484 52.0662 48.2331 51.6821 48.0469 51.2326C47.8608 50.7832 47.812 50.2886 47.907 49.8115C48.0019 49.3343 48.2361 48.8961 48.5801 48.5521C48.9241 48.2081 49.3624 47.9739 49.8395 47.8789C50.3166 47.784 50.8112 47.8327 51.2606 48.0189C51.7101 48.2051 52.0942 48.5203 52.3645 48.9248C52.6348 49.3293 52.779 49.8049 52.779 50.2913C52.7778 50.6163 52.7125 50.9379 52.5867 51.2376C52.4609 51.5373 52.2773 51.8092 52.0462 52.0377C51.8151 52.2662 51.5411 52.4469 51.2401 52.5693C50.939 52.6917 50.6167 52.7535 50.2917 52.751H50.3194ZM52.1618 46.9841C51.6011 46.6626 50.9657 46.4942 50.3194 46.4959C49.3135 46.4983 48.3495 46.899 47.6383 47.6102C46.927 48.3215 46.5264 49.2855 46.5239 50.2913C46.5223 50.9377 46.6907 51.5731 47.0122 52.1338C43.0189 54.9359 38.1656 56.2405 33.3056 55.8181C28.4456 55.3958 23.8902 53.2736 20.4401 49.8247C16.9901 46.3758 14.8664 41.8209 14.4425 36.9611C14.0187 32.1012 15.3217 27.2475 18.1225 23.2534C18.6988 23.5754 19.3494 23.7408 20.0095 23.733C20.6696 23.7252 21.3162 23.5446 21.8847 23.209C22.4532 22.8735 22.9239 22.3948 23.2498 21.8207C23.5757 21.2466 23.7454 20.5971 23.742 19.937C23.7437 19.2906 23.5753 18.6552 23.2538 18.0945C27.2476 15.2875 32.1036 13.9795 36.9669 14.4007C41.8303 14.8218 46.3891 16.9452 49.8409 20.397C53.2927 23.8488 55.4161 28.4076 55.8372 33.271C56.2584 38.1343 54.9504 42.9904 52.1434 46.9841H52.1618Z" fill="#555555"/>
</g>
</g>
</g>
</g>
<defs>
<clipPath id="clip0_970_3302">
<rect width="44.2188" height="44.2188" fill="white" transform="translate(13 13)"/>
</clipPath>
</defs>
</svg>
