<svg width="70" height="70" viewBox="0 0 70 70" fill="none" xmlns="http://www.w3.org/2000/svg">
<g id="fave_02">
<mask id="mask0_970_3289" style="mask-type:alpha" maskUnits="userSpaceOnUse" x="0" y="0" width="70" height="70">
<rect id="Rectangle 160" width="70" height="70" fill="white"/>
</mask>
<g mask="url(#mask0_970_3289)">
<g id="Group">
<g id="Group_2">
<g id="Group_3">
<path id="Vector" d="M53.5263 35.8912H46.1638C45.7567 35.8912 45.4269 35.5614 45.4269 35.1543C45.4269 34.7471 45.7567 34.4173 46.1638 34.4173H53.2205L55.7446 31.8931V24.1068H35.1091C34.7019 24.1068 34.3721 23.777 34.3721 23.3699C34.3721 22.9627 34.7019 22.6329 35.1091 22.6329H56.4816C56.8888 22.6329 57.2186 22.9627 57.2186 23.3699V32.1971C57.2186 32.3924 57.1412 32.5803 57.0031 32.7185L54.0477 35.6738C53.9077 35.812 53.7216 35.8912 53.5263 35.8912Z" fill="#555555"/>
</g>
<g id="Group_4">
<path id="Vector_2" d="M43.2173 35.8913H27.0036C26.5964 35.8913 26.2666 35.5615 26.2666 35.1543C26.2666 34.7471 26.5964 34.4173 27.0036 34.4173H43.2173C43.6245 34.4173 43.9543 34.7471 43.9543 35.1543C43.9543 35.5596 43.6245 35.8913 43.2173 35.8913Z" fill="#555555"/>
</g>
<g id="Group_5">
<path id="Vector_3" d="M24.0548 35.8912H16.6923C16.497 35.8912 16.3091 35.8139 16.1709 35.6757L13.2156 32.7204C13.0774 32.5822 13 32.3942 13 32.1989V23.3699C13 22.9627 13.3298 22.6329 13.737 22.6329H35.1096C35.5167 22.6329 35.8465 22.9627 35.8465 23.3699C35.8465 23.777 35.5167 24.1068 35.1096 24.1068H14.474V31.8913L16.9981 34.4154H24.0548C24.462 34.4154 24.7918 34.7452 24.7918 35.1524C24.7918 35.5596 24.462 35.8912 24.0548 35.8912Z" fill="#555555"/>
</g>
<g id="Group_6">
<path id="Vector_4" d="M43.2173 24.1068H27.0036C26.5964 24.1068 26.2666 23.777 26.2666 23.3699V19.6849C26.2666 17.6527 27.9193 16 29.9515 16H40.2693C42.3016 16 43.9543 17.6527 43.9543 19.6849V23.3699C43.9543 23.777 43.6245 24.1068 43.2173 24.1068ZM27.7406 22.6329H42.4803V19.6849C42.4803 18.4652 41.489 17.474 40.2693 17.474H29.9515C28.7318 17.474 27.7406 18.4652 27.7406 19.6849V22.6329Z" fill="#555555"/>
</g>
<g id="Group_7">
<path id="Vector_5" d="M55.7455 53.5863H14.4743C14.0671 53.5863 13.7373 53.2565 13.7373 52.8493V32.9507C13.7373 32.5435 14.0671 32.2137 14.4743 32.2137C14.8815 32.2137 15.2113 32.5435 15.2113 32.9507V52.1123H55.0085V32.9507C55.0085 32.5435 55.3383 32.2137 55.7455 32.2137C56.1527 32.2137 56.4825 32.5435 56.4825 32.9507V52.8493C56.4825 53.2565 56.1527 53.5863 55.7455 53.5863Z" fill="#555555"/>
</g>
<g id="Group_8">
<path id="Vector_6" d="M27.0013 38.8466H24.0534C23.6462 38.8466 23.3164 38.5168 23.3164 38.1096V32.2137C23.3164 31.8065 23.6462 31.4767 24.0534 31.4767H27.0013C27.4085 31.4767 27.7383 31.8065 27.7383 32.2137V38.1096C27.7383 38.5168 27.4085 38.8466 27.0013 38.8466ZM24.7904 37.3726H26.2643V32.9507H24.7904V37.3726Z" fill="#555555"/>
</g>
<g id="Group_9">
<path id="Vector_7" d="M46.1644 38.8466H43.2165C42.8093 38.8466 42.4795 38.5168 42.4795 38.1096V32.2137C42.4795 31.8065 42.8093 31.4767 43.2165 31.4767H46.1644C46.5716 31.4767 46.9014 31.8065 46.9014 32.2137V38.1096C46.9014 38.5168 46.5716 38.8466 46.1644 38.8466ZM43.9535 37.3726H45.4274V32.9507H43.9535V37.3726Z" fill="#555555"/>
</g>
</g>
<g id="Group_10">
<path id="Vector_8" d="M38.7943 52.4806C38.3872 52.4806 38.0574 52.1508 38.0574 51.7436C38.0574 50.1185 36.7345 48.7956 35.1094 48.7956C33.4844 48.7956 32.1615 50.1185 32.1615 51.7436C32.1615 52.1508 31.8317 52.4806 31.4245 52.4806C31.0173 52.4806 30.6875 52.1508 30.6875 51.7436C30.6875 49.306 32.6718 47.3217 35.1094 47.3217C37.547 47.3217 39.5313 49.306 39.5313 51.7436C39.5313 52.1508 39.2015 52.4806 38.7943 52.4806Z" fill="#555555"/>
</g>
<g id="Group_11">
<path id="Vector_9" d="M48.3749 52.8491C47.9677 52.8491 47.6379 52.5193 47.6379 52.1122V50.8759L44.8687 50.5682C44.5573 50.5332 44.3031 50.3065 44.2312 50.0007C43.9991 48.9947 43.6011 48.0366 43.0502 47.1541C42.8844 46.8888 42.9046 46.5479 43.0999 46.3029L44.8429 44.1251L43.0962 42.3784L40.9185 44.1214C40.6734 44.3167 40.3307 44.337 40.0672 44.1711C39.1847 43.6184 38.2266 43.2223 37.2206 42.9901C36.9148 42.9201 36.6882 42.664 36.6532 42.3526L36.3455 39.5834H33.8747L33.567 42.3526C33.532 42.664 33.3054 42.9183 32.9995 42.9901C31.9936 43.2223 31.0355 43.6202 30.1529 44.1711C29.8876 44.337 29.5468 44.3185 29.3017 44.1214L27.1239 42.3784L25.3773 44.1251L27.1202 46.3029C27.3156 46.5479 27.3358 46.8888 27.17 47.1541C26.6172 48.0366 26.2211 48.9947 25.989 50.0007C25.919 50.3065 25.6629 50.5332 25.3515 50.5682L22.5804 50.8759V52.1122C22.5804 52.5193 22.2506 52.8491 21.8434 52.8491C21.4362 52.8491 21.1064 52.5193 21.1064 52.1122V50.2163C21.1064 49.8404 21.3883 49.5253 21.7624 49.4848L24.6808 49.1605C24.9111 48.348 25.2354 47.5668 25.65 46.828L23.813 44.5323C23.579 44.2393 23.6011 43.8174 23.8665 43.5502L26.5472 40.8694C26.8126 40.6041 27.2363 40.5802 27.5293 40.816L29.825 42.6529C30.5638 42.2384 31.345 41.9141 32.1575 41.6838L32.4818 38.7654C32.5223 38.3913 32.8393 38.1094 33.2133 38.1094H37.0032C37.3791 38.1094 37.6941 38.3913 37.7347 38.7654L38.059 41.6838C38.8715 41.9141 39.6527 42.2384 40.3915 42.6529L42.6872 40.816C42.9802 40.5802 43.4039 40.6041 43.6693 40.8694L46.35 43.5502C46.6154 43.8156 46.6393 44.2393 46.4035 44.5323L44.5665 46.828C44.9811 47.5668 45.3054 48.348 45.5357 49.1605L48.4541 49.4848C48.8282 49.5253 49.11 49.8422 49.11 50.2163V52.1122C49.1119 52.5193 48.7821 52.8491 48.3749 52.8491Z" fill="#555555"/>
</g>
</g>
</g>
</g>
</svg>
