<svg width="70" height="70" viewBox="0 0 70 70" fill="none" xmlns="http://www.w3.org/2000/svg">
<g id="fave_08">
<mask id="mask0_970_3266" style="mask-type:alpha" maskUnits="userSpaceOnUse" x="0" y="0" width="70" height="70">
<rect id="Rectangle 264" width="70" height="70" fill="white"/>
</mask>
<g mask="url(#mask0_970_3266)">
<g id="Group 282">
<g id="Frame" clip-path="url(#clip0_970_3266)">
<path id="Vector" d="M18.1319 17.9101H27.0678C27.2314 17.8908 27.3823 17.8122 27.4918 17.6891C27.6013 17.566 27.6617 17.407 27.6617 17.2422C27.6617 17.0775 27.6013 16.9184 27.4918 16.7953C27.3823 16.6722 27.2314 16.5936 27.0678 16.5743H18.1319C18.0376 16.5632 17.942 16.5722 17.8515 16.6007C17.7609 16.6292 17.6774 16.6766 17.6065 16.7397C17.5355 16.8028 17.4787 16.8802 17.4398 16.9668C17.401 17.0534 17.3809 17.1473 17.3809 17.2422C17.3809 17.3371 17.401 17.431 17.4398 17.5176C17.4787 17.6042 17.5355 17.6816 17.6065 17.7447C17.6774 17.8078 17.7609 17.8552 17.8515 17.8837C17.942 17.9122 18.0376 17.9212 18.1319 17.9101V17.9101Z" fill="#555555"/>
<path id="Vector_2" d="M18.1315 21.4845H32.521C32.6994 21.4845 32.8704 21.4136 32.9966 21.2875C33.1227 21.1614 33.1935 20.9903 33.1935 20.812C33.1911 20.6352 33.1192 20.4665 32.9933 20.3424C32.8675 20.2183 32.6978 20.1487 32.521 20.1487H18.1315C17.9547 20.1487 17.785 20.2183 17.6592 20.3424C17.5333 20.4665 17.4614 20.6352 17.459 20.812C17.459 20.9903 17.5298 21.1614 17.656 21.2875C17.7821 21.4136 17.9531 21.4845 18.1315 21.4845V21.4845Z" fill="#555555"/>
<path id="Vector_3" d="M53.8656 28.1819H50.0701V24.3864C50.0701 24.2081 49.9993 24.037 49.8732 23.9109C49.747 23.7848 49.576 23.7139 49.3976 23.7139H18.1312C17.1246 23.7139 16.1592 23.314 15.4474 22.6023C14.7357 21.8905 14.3358 20.9251 14.3358 19.9185V18.1313C14.3382 17.1254 14.7389 16.1615 15.4501 15.4502C16.1614 14.7389 17.1254 14.3383 18.1312 14.3359H48.7251V16.5744H30.6415C30.5472 16.5633 30.4516 16.5723 30.361 16.6008C30.2705 16.6293 30.187 16.6767 30.116 16.7398C30.0451 16.8029 29.9883 16.8803 29.9494 16.9669C29.9105 17.0535 29.8904 17.1474 29.8904 17.2423C29.8904 17.3373 29.9105 17.4311 29.9494 17.5178C29.9883 17.6044 30.0451 17.6818 30.116 17.7449C30.187 17.8079 30.2705 17.8553 30.361 17.8838C30.4516 17.9123 30.5472 17.9213 30.6415 17.9102H48.7251V20.1488H36.1043C35.9276 20.1488 35.7579 20.2184 35.6321 20.3425C35.5062 20.4666 35.4343 20.6353 35.4319 20.8121C35.4319 20.9904 35.5027 21.1615 35.6288 21.2876C35.7549 21.4137 35.926 21.4846 36.1043 21.4846H47.3341C50.0978 21.4846 50.0978 21.4846 50.0978 20.8121V13.7002C50.0953 13.5235 50.0234 13.3548 49.8976 13.2306C49.7717 13.1065 49.602 13.0369 49.4253 13.0369H18.1312C16.7711 13.0394 15.4674 13.5808 14.5056 14.5425C13.5438 15.5043 13.0024 16.808 13 18.1682V52.1153C13 53.4771 13.5403 54.7832 14.5023 55.7469C15.4644 56.7107 16.7695 57.2533 18.1312 57.2558H49.3976C49.4859 57.2558 49.5734 57.2384 49.655 57.2046C49.7366 57.1708 49.8107 57.1212 49.8732 57.0588C49.9356 56.9964 49.9851 56.9222 50.0189 56.8406C50.0527 56.759 50.0701 56.6716 50.0701 56.5833V50.1347H53.8656C54.7533 50.1322 55.6039 49.7779 56.2307 49.1493C56.8576 48.5207 57.2096 47.6692 57.2096 46.7814V31.5351C57.2096 30.6474 56.8576 29.7959 56.2307 29.1673C55.6039 28.5387 54.7533 28.1843 53.8656 28.1819ZM17.4587 55.8187C16.5913 55.6626 15.8053 55.2095 15.2354 54.5371C14.6656 53.8647 14.3475 53.015 14.3358 52.1338V23.3731C15.1503 24.2715 16.2567 24.8525 17.4587 25.0129V55.8187ZM48.7251 55.8831H18.8037V25.0589H48.7251V28.1819H36.8874C35.9997 28.1843 35.1491 28.5387 34.5222 29.1673C33.8954 29.7959 33.5433 30.6474 33.5433 31.5351V52.9721C33.5413 53.0897 33.5711 53.2057 33.6294 53.3078C33.6878 53.41 33.7726 53.4945 33.875 53.5524C33.9764 53.6096 34.0902 53.6412 34.2066 53.6445C34.3238 53.647 34.4391 53.6149 34.5383 53.5524L40.646 50.0702H48.7251V55.8831ZM55.8739 46.7262C55.8739 47.2588 55.6623 47.7696 55.2856 48.1462C54.909 48.5228 54.3982 48.7344 53.8656 48.7344H40.4617C40.3452 48.7367 40.2311 48.7684 40.1301 48.8266L34.8791 51.8298V31.5628C34.8815 31.0309 35.0939 30.5215 35.47 30.1454C35.8461 29.7693 36.3555 29.5569 36.8874 29.5545H53.8656C54.3975 29.5569 54.9069 29.7693 55.283 30.1454C55.6591 30.5215 55.8714 31.0309 55.8739 31.5628V46.7262Z" fill="#555555"/>
<path id="Vector_4" d="M48.9468 44.7086H47.8321V38.26C47.8321 38.0817 47.7612 37.9106 47.6351 37.7845C47.509 37.6584 47.3379 37.5875 47.1596 37.5875H41.8073C41.6289 37.5875 41.4578 37.6584 41.3317 37.7845C41.2056 37.9106 41.1348 38.0817 41.1348 38.26C41.1348 38.4384 41.2056 38.6094 41.3317 38.7355C41.4578 38.8617 41.6289 38.9325 41.8073 38.9325H42.9219V44.7362H41.8073C41.6289 44.7362 41.4578 44.8071 41.3317 44.9332C41.2056 45.0593 41.1348 45.2304 41.1348 45.4088C41.1348 45.5871 41.2056 45.7581 41.3317 45.8843C41.4578 46.0104 41.6289 46.0812 41.8073 46.0812H48.9468C49.1251 46.0812 49.2962 46.0104 49.4223 45.8843C49.5484 45.7581 49.6192 45.5871 49.6192 45.4088C49.6192 45.2304 49.5484 45.0593 49.4223 44.9332C49.2962 44.8071 49.1251 44.7362 48.9468 44.7362V44.7086ZM46.4963 44.7086H44.2577V38.9049H46.4963V44.7086Z" fill="#555555"/>
<path id="Vector_5" d="M45.3816 36.224C45.868 36.224 46.3436 36.0798 46.7481 35.8095C47.1526 35.5392 47.4678 35.1551 47.654 34.7056C47.8402 34.2562 47.8889 33.7616 47.794 33.2845C47.6991 32.8074 47.4648 32.3691 47.1208 32.0251C46.7768 31.6811 46.3385 31.4469 45.8614 31.352C45.3843 31.257 44.8897 31.3057 44.4403 31.4919C43.9908 31.6781 43.6067 31.9933 43.3364 32.3978C43.0661 32.8023 42.9219 33.2779 42.9219 33.7644C42.9219 34.4167 43.181 35.0423 43.6423 35.5036C44.1036 35.9649 44.7292 36.224 45.3816 36.224V36.224ZM45.3816 32.6497C45.6016 32.6515 45.8162 32.7184 45.9983 32.842C46.1804 32.9656 46.3218 33.1403 46.4048 33.3441C46.4878 33.548 46.5085 33.7718 46.4645 33.9874C46.4204 34.203 46.3135 34.4008 46.1573 34.5558C46.001 34.7107 45.8024 34.816 45.5864 34.8583C45.3705 34.9005 45.1468 34.8779 44.9437 34.7933C44.7405 34.7087 44.567 34.5658 44.4449 34.3827C44.3228 34.1996 44.2577 33.9844 44.2577 33.7644C44.2577 33.6172 44.2868 33.4715 44.3434 33.3356C44.4 33.1998 44.4829 33.0765 44.5874 32.9729C44.6919 32.8692 44.8158 32.7873 44.9522 32.7319C45.0885 32.6764 45.2344 32.6485 45.3816 32.6497V32.6497Z" fill="#555555"/>
</g>
</g>
</g>
</g>
<defs>
<clipPath id="clip0_970_3266">
<rect width="44.2188" height="44.2188" fill="white" transform="translate(13 13)"/>
</clipPath>
</defs>
</svg>
