<svg width="70" height="70" viewBox="0 0 70 70" fill="none" xmlns="http://www.w3.org/2000/svg">
<g id="fave_05">
<mask id="mask0_970_3300" style="mask-type:alpha" maskUnits="userSpaceOnUse" x="0" y="0" width="70" height="70">
<rect id="Rectangle 282" width="70" height="70" fill="white"/>
</mask>
<g mask="url(#mask0_970_3300)">
<g id="Group 281">
<g id="Frame" clip-path="url(#clip0_970_3300)">
<path id="Vector" d="M56.5463 17.9194C56.7247 17.9194 56.8958 17.8485 57.0219 17.7224C57.148 17.5963 57.2188 17.4252 57.2188 17.2469V13.6725C57.2188 13.4941 57.148 13.3231 57.0219 13.197C56.8958 13.0709 56.7247 13 56.5463 13H13.6633C13.4865 13.0024 13.3178 13.0743 13.1937 13.2002C13.0696 13.3261 13 13.4957 13 13.6725V17.21C13 17.3868 13.0696 17.5564 13.1937 17.6823C13.3178 17.8082 13.4865 17.8801 13.6633 17.8825H14.7872V43.3728H13.6633C13.4865 43.3752 13.3178 43.4472 13.1937 43.573C13.0696 43.6989 13 43.8686 13 44.0453V47.6105C13 47.7872 13.0696 47.9569 13.1937 48.0828C13.3178 48.2086 13.4865 48.2805 13.6633 48.283H34.4369V51.4888C33.7421 51.6526 33.1317 52.066 32.7217 52.6504C32.3118 53.2347 32.1308 53.9494 32.2132 54.6584C32.2957 55.3675 32.6358 56.0216 33.1689 56.4963C33.702 56.971 34.391 57.2333 35.1048 57.2333C35.8187 57.2333 36.5076 56.971 37.0407 56.4963C37.5739 56.0216 37.914 55.3675 37.9964 54.6584C38.0788 53.9494 37.8979 53.2347 37.4879 52.6504C37.0779 52.066 36.4675 51.6526 35.7727 51.4888V48.283H56.5463C56.7247 48.283 56.8958 48.2121 57.0219 48.086C57.148 47.9599 57.2188 47.7888 57.2188 47.6105V44.0361C57.2188 43.8577 57.148 43.6867 57.0219 43.5606C56.8958 43.4345 56.7247 43.3636 56.5463 43.3636H55.4317V17.9194H56.5463ZM36.6663 54.317C36.6681 54.6275 36.5776 54.9316 36.4062 55.1905C36.2348 55.4494 35.9903 55.6516 35.7038 55.7713C35.4172 55.8909 35.1016 55.9227 34.7969 55.8626C34.4923 55.8025 34.2124 55.6531 33.9928 55.4336C33.7733 55.214 33.6239 54.9341 33.5638 54.6294C33.5037 54.3248 33.5354 54.0091 33.6551 53.7226C33.7748 53.4361 33.977 53.1916 34.2359 53.0202C34.4948 52.8488 34.7989 52.7583 35.1094 52.7601C35.5216 52.7625 35.9162 52.9273 36.2076 53.2188C36.4991 53.5102 36.6639 53.9048 36.6663 54.317V54.317ZM55.8738 44.7178V46.9472H14.345V44.7178H55.883H55.8738ZM16.1229 43.3728V17.9194H54.0867V43.3728H16.1229ZM54.7592 16.5744H14.345V14.345H55.883V16.5744H54.7592Z" fill="#555555"/>
<path id="Vector_2" d="M50.2728 34.4461H37.652C38.1706 33.248 38.4372 31.9561 38.4351 30.6506C38.4434 28.3289 37.6131 26.0822 36.097 24.3238C34.5809 22.5654 32.4809 21.4135 30.1832 21.08C27.8855 20.7465 25.5447 21.2538 23.5912 22.5086C21.6377 23.7635 20.203 25.6814 19.551 27.9097C18.8989 30.138 19.0733 32.5268 20.042 34.6368C21.0108 36.7468 22.7089 38.4361 24.8239 39.3939C26.9388 40.3517 29.3285 40.5137 31.5534 39.8501C33.7783 39.1864 35.6888 37.7418 36.9335 35.7818H50.2728C50.3671 35.7929 50.4627 35.7839 50.5533 35.7554C50.6438 35.7269 50.7274 35.6796 50.7983 35.6165C50.8692 35.5534 50.926 35.476 50.9649 35.3894C51.0038 35.3028 51.0239 35.2089 51.0239 35.1139C51.0239 35.019 51.0038 34.9251 50.9649 34.8385C50.926 34.7519 50.8692 34.6745 50.7983 34.6114C50.7274 34.5483 50.6438 34.501 50.5533 34.4725C50.4627 34.444 50.3671 34.435 50.2728 34.4461V34.4461ZM20.5725 30.6506C20.5789 28.5773 21.3619 26.5817 22.767 25.0572C24.1722 23.5327 26.0975 22.5899 28.1634 22.4148V30.3742L22.5439 35.9937C21.2789 34.5012 20.5866 32.6071 20.5909 30.6506H20.5725ZM36.1689 34.4461H31.5627C31.4684 34.435 31.3729 34.444 31.2823 34.4725C31.1917 34.501 31.1082 34.5483 31.0373 34.6114C30.9663 34.6745 30.9095 34.7519 30.8707 34.8385C30.8318 34.9251 30.8117 35.019 30.8117 35.1139C30.8117 35.2089 30.8318 35.3028 30.8707 35.3894C30.9095 35.476 30.9663 35.5534 31.0373 35.6165C31.1082 35.6796 31.1917 35.7269 31.2823 35.7554C31.3729 35.7839 31.4684 35.7929 31.5627 35.7818H35.3398C34.6541 36.6484 33.8009 37.3679 32.8311 37.8975C31.8612 38.4271 30.7947 38.7558 29.695 38.8642C28.5953 38.9725 27.4851 38.8582 26.4306 38.528C25.376 38.1979 24.3988 37.6587 23.5573 36.9426L29.1768 31.3139H37.1269C37.0248 32.41 36.7053 33.4747 36.1873 34.4461H36.1689ZM29.5084 29.9781V22.4148C31.4574 22.5818 33.2847 23.4325 34.667 24.8166C36.0494 26.2006 36.8979 28.0289 37.0625 29.9781H29.5084Z" fill="#555555"/>
<path id="Vector_3" d="M41.3634 31.314H46.7157C46.81 31.325 46.9056 31.3161 46.9961 31.2876C47.0867 31.2591 47.1702 31.2117 47.2411 31.1486C47.3121 31.0855 47.3689 31.0081 47.4078 30.9215C47.4467 30.8349 47.4668 30.741 47.4668 30.6461C47.4668 30.5511 47.4467 30.4572 47.4078 30.3706C47.3689 30.284 47.3121 30.2066 47.2411 30.1435C47.1702 30.0804 47.0867 30.0331 46.9961 30.0046C46.9056 29.9761 46.81 29.9671 46.7157 29.9782H41.3634C41.2691 29.9671 41.1735 29.9761 41.0829 30.0046C40.9924 30.0331 40.9089 30.0804 40.8379 30.1435C40.767 30.2066 40.7102 30.284 40.6713 30.3706C40.6324 30.4572 40.6123 30.5511 40.6123 30.6461C40.6123 30.741 40.6324 30.8349 40.6713 30.9215C40.7102 31.0081 40.767 31.0855 40.8379 31.1486C40.9089 31.2117 40.9924 31.2591 41.0829 31.2876C41.1735 31.3161 41.2691 31.325 41.3634 31.314V31.314Z" fill="#555555"/>
<path id="Vector_4" d="M50.2728 25.501H46.6984C46.5348 25.5203 46.3839 25.5989 46.2745 25.722C46.165 25.8451 46.1045 26.0042 46.1045 26.1689C46.1045 26.3337 46.165 26.4927 46.2745 26.6158C46.3839 26.7389 46.5348 26.8175 46.6984 26.8368H50.2728C50.3671 26.8479 50.4626 26.8389 50.5532 26.8104C50.6438 26.7819 50.7273 26.7345 50.7983 26.6714C50.8692 26.6083 50.926 26.5309 50.9649 26.4443C51.0037 26.3577 51.0239 26.2638 51.0239 26.1689C51.0239 26.074 51.0037 25.9801 50.9649 25.8935C50.926 25.8069 50.8692 25.7294 50.7983 25.6664C50.7273 25.6033 50.6438 25.5559 50.5532 25.5274C50.4626 25.4989 50.3671 25.4899 50.2728 25.501Z" fill="#555555"/>
<path id="Vector_5" d="M41.3634 26.846H44.0349C44.1292 26.8571 44.2248 26.8481 44.3154 26.8196C44.4059 26.7911 44.4894 26.7438 44.5604 26.6807C44.6313 26.6176 44.6881 26.5402 44.727 26.4535C44.7659 26.3669 44.786 26.2731 44.786 26.1781C44.786 26.0832 44.7659 25.9893 44.727 25.9027C44.6881 25.8161 44.6313 25.7387 44.5604 25.6756C44.4894 25.6125 44.4059 25.5651 44.3154 25.5366C44.2248 25.5081 44.1292 25.4991 44.0349 25.5102H41.3634C41.2691 25.4991 41.1735 25.5081 41.0829 25.5366C40.9924 25.5651 40.9089 25.6125 40.8379 25.6756C40.767 25.7387 40.7102 25.8161 40.6713 25.9027C40.6324 25.9893 40.6123 26.0832 40.6123 26.1781C40.6123 26.2731 40.6324 26.3669 40.6713 26.4535C40.7102 26.5402 40.767 26.6176 40.8379 26.6807C40.9089 26.7438 40.9924 26.7911 41.0829 26.8196C41.1735 26.8481 41.2691 26.8571 41.3634 26.846V26.846Z" fill="#555555"/>
<path id="Vector_6" d="M50.2727 21.0422H47.9328C47.7561 21.0447 47.5874 21.1166 47.4632 21.2424C47.3391 21.3683 47.2695 21.538 47.2695 21.7147C47.2695 21.8906 47.3394 22.0594 47.4638 22.1837C47.5882 22.3081 47.7569 22.378 47.9328 22.378H50.2727C50.4495 22.378 50.6192 22.3084 50.745 22.1843C50.8709 22.0602 50.9428 21.8915 50.9452 21.7147C50.9452 21.5364 50.8744 21.3653 50.7482 21.2392C50.6221 21.1131 50.4511 21.0422 50.2727 21.0422V21.0422Z" fill="#555555"/>
<path id="Vector_7" d="M41.3639 22.378H45.2699C45.3578 22.3792 45.445 22.363 45.5265 22.3302C45.6081 22.2974 45.6823 22.2487 45.7449 22.187C45.8074 22.1253 45.8571 22.0518 45.891 21.9707C45.9249 21.8896 45.9424 21.8026 45.9424 21.7147C45.9424 21.5364 45.8715 21.3653 45.7454 21.2392C45.6193 21.1131 45.4483 21.0422 45.2699 21.0422H41.3639C41.1855 21.0422 41.0145 21.1131 40.8884 21.2392C40.7623 21.3653 40.6914 21.5364 40.6914 21.7147C40.6914 21.8026 40.7089 21.8896 40.7428 21.9707C40.7767 22.0518 40.8263 22.1253 40.8889 22.187C40.9515 22.2487 41.0257 22.2974 41.1072 22.3302C41.1888 22.363 41.276 22.3792 41.3639 22.378V22.378Z" fill="#555555"/>
</g>
</g>
</g>
</g>
<defs>
<clipPath id="clip0_970_3300">
<rect width="44.2188" height="44.2188" fill="white" transform="translate(13 13)"/>
</clipPath>
</defs>
</svg>
